<svg height="512pt" viewBox="0 -10 512.001 512" width="512pt" xmlns="http://www.w3.org/2000/svg"><g fill="#d0cfd1"><path d="m222.574219 11.785156h-77.019531c-4.269532 0-7.734376 3.464844-7.734376 7.734375s3.464844 7.730469 7.734376 7.730469h69.285156v46.371094c0 4.269531 3.460937 7.734375 7.734375 7.734375 4.269531 0 7.730469-3.464844 7.730469-7.734375v-54.101563c0-4.269531-3.460938-7.734375-7.730469-7.734375zm0 0"/><path d="m374.949219 35.613281c-4.273438 0-7.734375 3.464844-7.734375 7.734375v30c0 4.269532 3.460937 7.734375 7.734375 7.734375 4.269531 0 7.730469-3.464843 7.730469-7.734375v-30c0-4.273437-3.460938-7.734375-7.730469-7.734375zm0 0"/><path d="m494.234375 137.003906c-4.269531 0-7.734375 3.460938-7.734375 7.730469v69.285156h-56.402344c-4.269531 0-7.734375 3.464844-7.734375 7.734375 0 4.269532 3.464844 7.730469 7.734375 7.730469h64.136719c4.269531 0 7.730469-3.460937 7.730469-7.730469v-77.019531c0-4.269531-3.460938-7.730469-7.730469-7.730469zm0 0"/><path d="m492.445312 358.980469-77.160156.140625c-4.269531.019531-7.71875 3.5-7.695312 7.769531.019531 4.273437 3.5 7.71875 7.769531 7.699219l77.160156-.144532c4.269531-.019531 7.714844-3.5 7.695313-7.769531-.019532-4.269531-3.5-7.71875-7.769532-7.695312zm0 0"/><path d="m364 466.371094h-69.285156v-46.371094c0-4.269531-3.460938-7.730469-7.734375-7.730469-4.269531 0-7.730469 3.460938-7.730469 7.730469v54.105469c0 4.269531 3.460938 7.730469 7.730469 7.730469h77.019531c4.273438 0 7.734375-3.460938 7.734375-7.730469 0-4.273438-3.460937-7.734375-7.734375-7.734375zm0 0"/><path d="m134.605469 414.660156c-4.269531 0-7.734375 3.460938-7.734375 7.730469v30.003906c0 4.269531 3.464844 7.730469 7.734375 7.730469s7.734375-3.460938 7.734375-7.730469v-30.003906c0-4.269531-3.460938-7.730469-7.734375-7.730469zm0 0"/><path d="m82.550781 278.429688h-64.136719c-4.269531 0-7.734374 3.464843-7.734374 7.734374v77.019532c0 4.269531 3.464843 7.730468 7.734374 7.730468 4.269532 0 7.734376-3.460937 7.734376-7.730468v-69.285156h56.402343c4.269531 0 7.730469-3.464844 7.730469-7.734376 0-4.269531-3.460938-7.734374-7.730469-7.734374zm0 0"/><path d="m37.222656 141.519531h50.070313c4.269531 0 7.734375-3.460937 7.734375-7.730469 0-4.273437-3.464844-7.734374-7.734375-7.734374h-50.070313c-4.269531 0-7.730468 3.460937-7.730468 7.734374 0 4.269532 3.460937 7.730469 7.730468 7.730469zm0 0"/><path d="m399.855469 73.644531h-287.710938c-16.855469 0-30.566406 13.710938-30.566406 30.566407v287.714843c0 16.855469 13.710937 30.566407 30.566406 30.566407h287.710938c16.855469 0 30.566406-13.710938 30.566406-30.566407v-287.714843c0-16.851563-13.710937-30.566407-30.566406-30.566407zm0 0"/></g><path d="m256 162.121094c-47.390625 0-85.945312 38.558594-85.945312 85.949218 0 47.390626 38.554687 85.945313 85.945312 85.945313s85.949219-38.554687 85.949219-85.945313c0-47.390624-38.558594-85.949218-85.949219-85.949218zm0 0" fill="#fff4f1"/><path d="m399.855469 73.644531h-23.074219c16.851562 0 30.566406 13.710938 30.566406 30.566407v287.714843c0 16.855469-13.714844 30.566407-30.566406 30.566407h23.074219c16.855469 0 30.566406-13.710938 30.566406-30.566407v-287.714843c0-16.855469-13.710937-30.566407-30.566406-30.566407zm0 0" fill="#b8b8b8"/><path d="m256 162.121094c-3.914062 0-7.761719.289062-11.539062.796875 41.953124 5.65625 74.410156 41.675781 74.410156 85.152343 0 43.476563-32.457032 79.492188-74.410156 85.148438 3.777343.511719 7.625.796875 11.539062.796875 47.390625 0 85.949219-38.554687 85.949219-85.945313 0-47.390624-38.558594-85.949218-85.949219-85.949218zm0 0" fill="#ecedef"/><path d="m123.96875 96.351562c-10.289062 0-18.660156 8.371094-18.660156 18.65625 0 10.289063 8.371094 18.660157 18.660156 18.660157 10.285156 0 18.65625-8.371094 18.65625-18.660157 0-10.285156-8.371094-18.65625-18.65625-18.65625zm0 0" fill="#999"/><path d="m385.097656 96.351562c-10.289062 0-18.660156 8.371094-18.660156 18.65625 0 10.289063 8.371094 18.660157 18.660156 18.660157 10.285156 0 18.65625-8.371094 18.65625-18.660157 0-10.285156-8.367187-18.65625-18.65625-18.65625zm0 0" fill="#999"/><path d="m123.96875 355.929688c-10.289062 0-18.660156 8.371093-18.660156 18.65625 0 10.289062 8.371094 18.660156 18.660156 18.660156 10.285156 0 18.65625-8.371094 18.65625-18.660156 0-10.289063-8.371094-18.65625-18.65625-18.65625zm0 0" fill="#999"/><path d="m385.097656 355.929688c-10.289062 0-18.660156 8.371093-18.660156 18.65625 0 10.289062 8.371094 18.660156 18.660156 18.660156 10.285156 0 18.65625-8.371094 18.65625-18.660156 0-10.289063-8.367187-18.65625-18.65625-18.65625zm0 0" fill="#999"/><path d="m254.863281 293.386719c-24.640625 0-44.6875-20.046875-44.6875-44.6875 0-12.824219 5.523438-25.046875 15.148438-33.53125 3.023437-2.667969 7.636719-2.375 10.300781.648437 2.664062 3.023438 2.375 7.632813-.648438 10.296875-6.484374 5.71875-10.207031 13.949219-10.207031 22.585938 0 16.59375 13.5 30.09375 30.097657 30.09375 16.59375 0 30.09375-13.5 30.09375-30.09375 0-8.433594-3.398438-16.25-9.566407-22.007813-2.945312-2.746094-3.105469-7.367187-.355469-10.3125 2.746094-2.945312 7.363282-3.105468 10.3125-.355468 9.023438 8.425781 14.203126 20.335937 14.203126 32.675781-.003907 24.640625-20.050782 44.6875-44.691407 44.6875zm0 0" fill="#d0cfd1"/><path d="m254.863281 243.640625c-4.027343 0-7.296875-3.265625-7.296875-7.296875v-28.34375c0-4.03125 3.269532-7.296875 7.296875-7.296875 4.03125 0 7.296875 3.265625 7.296875 7.296875v28.34375c0 4.03125-3.265625 7.296875-7.296875 7.296875zm0 0" fill="#d0cfd1"/><path d="m18.777344 115.007812c-10.355469 0-18.777344 8.425782-18.777344 18.78125 0 10.351563 8.421875 18.777344 18.777344 18.777344 10.355468 0 18.777344-8.425781 18.777344-18.777344 0-10.355468-8.421876-18.78125-18.777344-18.78125zm0 0" fill="#f45a3c"/><path d="m18.777344 115.007812c-3.949219 0-7.609375 1.234376-10.636719 3.324219 4.910156 3.390625 8.136719 9.050781 8.136719 15.457031 0 6.402344-3.230469 12.0625-8.136719 15.453126 3.027344 2.089843 6.6875 3.324218 10.636719 3.324218 10.355468 0 18.777344-8.425781 18.777344-18.777344 0-10.355468-8.421876-18.78125-18.777344-18.78125zm0 0" fill="#eb4c36"/><path d="m19.804688 347.980469c-10.351563 0-18.777344 8.421875-18.777344 18.777343 0 10.351563 8.425781 18.777344 18.777344 18.777344 10.355468 0 18.78125-8.421875 18.78125-18.777344 0-10.355468-8.425782-18.777343-18.78125-18.777343zm0 0" fill="#f45a3c"/><path d="m19.804688 347.980469c-3.945313 0-7.609376 1.230469-10.636719 3.320312 4.910156 3.390625 8.136719 9.050781 8.136719 15.457031s-3.226563 12.066407-8.136719 15.453126c3.027343 2.09375 6.691406 3.324218 10.636719 3.324218 10.355468 0 18.78125-8.421875 18.78125-18.777344 0-10.355468-8.425782-18.777343-18.78125-18.777343zm0 0" fill="#eb4c36"/><path d="m134.605469 453.542969c-10.351563 0-18.777344 8.425781-18.777344 18.777343 0 10.355469 8.421875 18.777344 18.777344 18.777344s18.777343-8.421875 18.777343-18.777344c0-10.351562-8.421874-18.777343-18.777343-18.777343zm0 0" fill="#f45a3c"/><path d="m134.605469 453.542969c-3.949219 0-7.609375 1.230469-10.636719 3.324219 4.910156 3.390624 8.136719 9.050781 8.136719 15.453124 0 6.40625-3.230469 12.066407-8.136719 15.457032 3.027344 2.089844 6.6875 3.320312 10.636719 3.320312 10.355469 0 18.777343-8.421875 18.777343-18.777344 0-10.351562-8.421874-18.777343-18.777343-18.777343zm0 0" fill="#eb4c36"/><path d="m374.949219 452.878906c-10.355469 0-18.777344 8.421875-18.777344 18.777344s8.421875 18.777344 18.777344 18.777344c10.351562 0 18.777343-8.421875 18.777343-18.777344s-8.425781-18.777344-18.777343-18.777344zm0 0" fill="#f45a3c"/><path d="m374.949219 452.878906c-3.949219 0-7.613281 1.230469-10.640625 3.320313 4.910156 3.390625 8.140625 9.050781 8.140625 15.457031s-3.230469 12.066406-8.140625 15.457031c3.027344 2.089844 6.691406 3.320313 10.640625 3.320313 10.351562 0 18.777343-8.421875 18.777343-18.777344s-8.425781-18.777344-18.777343-18.777344zm0 0" fill="#eb4c36"/><path d="m492.839844 347.933594c-10.351563.046875-18.734375 8.511718-18.6875 18.867187.050781 10.351563 8.511718 18.738281 18.867187 18.6875 10.355469-.046875 18.738281-8.511719 18.6875-18.867187-.050781-10.355469-8.511719-18.738282-18.867187-18.6875zm0 0" fill="#f45a3c"/><path d="m492.839844 347.933594c-3.945313.019531-7.605469 1.265625-10.621094 3.371094 4.925781 3.367187 8.179688 9.011718 8.210938 15.417968s-3.171876 12.082032-8.066407 15.496094c3.039063 2.074219 6.707031 3.289062 10.65625 3.269531 10.355469-.046875 18.738281-8.511719 18.6875-18.867187-.050781-10.355469-8.511719-18.738282-18.867187-18.6875zm0 0" fill="#eb4c36"/><path d="m493.222656 121.652344c-10.351562 0-18.777344 8.425781-18.777344 18.777344 0 10.355468 8.421876 18.777343 18.777344 18.777343 10.355469 0 18.777344-8.421875 18.777344-18.777343 0-10.351563-8.421875-18.777344-18.777344-18.777344zm0 0" fill="#f45a3c"/><path d="m493.222656 121.652344c-3.949218 0-7.609375 1.230468-10.636718 3.324218 4.910156 3.390626 8.136718 9.050782 8.136718 15.453126 0 6.40625-3.230468 12.066406-8.136718 15.457031 3.027343 2.089843 6.6875 3.320312 10.636718 3.320312 10.355469 0 18.777344-8.421875 18.777344-18.777343 0-10.351563-8.421875-18.777344-18.777344-18.777344zm0 0" fill="#eb4c36"/><path d="m374.949219 6.046875c-10.972657 0-19.902344 8.925781-19.902344 19.898437 0 10.976563 8.925781 19.902344 19.902344 19.902344 10.972656 0 19.898437-8.925781 19.898437-19.902344 0-10.972656-8.925781-19.898437-19.898437-19.898437zm0 0" fill="#f45a3c"/><path d="m374.949219 6.046875c-4.1875 0-8.066407 1.304687-11.277344 3.519531 5.203125 3.59375 8.625 9.589844 8.625 16.378906 0 6.789063-3.421875 12.785157-8.625 16.378907 3.210937 2.214843 7.089844 3.523437 11.277344 3.523437 10.972656 0 19.898437-8.929687 19.898437-19.902344 0-10.972656-8.925781-19.898437-19.898437-19.898437zm0 0" fill="#eb4c36"/><path d="m129.039062 0c-10.972656 0-19.898437 8.925781-19.898437 19.902344 0 10.972656 8.925781 19.898437 19.898437 19.898437 10.976563 0 19.902344-8.925781 19.902344-19.898437 0-10.976563-8.925781-19.902344-19.902344-19.902344zm0 0" fill="#f45a3c"/><path d="m129.039062 0c-4.183593 0-8.066406 1.304688-11.273437 3.519531 5.203125 3.59375 8.625 9.59375 8.625 16.378907 0 6.789062-3.421875 12.789062-8.625 16.382812 3.207031 2.214844 7.089844 3.519531 11.273437 3.519531 10.972657 0 19.902344-8.925781 19.902344-19.902343 0-10.972657-8.925781-19.898438-19.902344-19.898438zm0 0" fill="#eb4c36"/></svg>