<svg xmlns="http://www.w3.org/2000/svg" xmlns:xlink="http://www.w3.org/1999/xlink" version="1.1" width="256" height="256" viewBox="0 0 256 256" xml:space="preserve">

<defs>
</defs>
<g style="stroke: none; stroke-width: 0; stroke-dasharray: none; stroke-linecap: butt; stroke-linejoin: miter; stroke-miterlimit: 10; fill: none; fill-rule: nonzero; opacity: 1;" transform="translate(1.4065934065934016 1.4065934065934016) scale(2.81 2.81)" >
	<path d="M 51.214 90 c -0.478 0 -0.942 -0.171 -1.309 -0.487 c -0.439 -0.38 -0.691 -0.932 -0.691 -1.513 V 58.396 c 0 -1.104 0.896 -2 2 -2 h 8.612 l 1.04 -8.106 h -9.652 c -1.104 0 -2 -0.896 -2 -2 v -7.729 c 0 -3.389 0.826 -7.894 7.968 -7.894 l 4.377 -0.001 v -7.02 c -1.735 -0.14 -4.385 -0.287 -7.292 -0.287 c -8.446 0 -13.488 5.234 -13.488 14.002 v 8.928 c 0 1.104 -0.896 2 -2 2 H 30.38 v 8.106 h 8.398 c 1.104 0 2 0.896 2 2 v 29.603 c 0 0.581 -0.252 1.133 -0.692 1.513 c -0.439 0.38 -1.021 0.549 -1.597 0.467 C 16.547 86.78 0 67.542 0 45.228 C 0 20.289 20.187 0 45 0 c 24.813 0 45 20.289 45 45.228 c 0 22.317 -16.551 41.557 -38.498 44.752 C 51.406 89.993 51.31 90 51.214 90 z M 53.214 60.396 V 85.62 C 72.061 81.755 86 64.789 86 45.228 C 86 22.495 67.607 4 45 4 S 4 22.495 4 45.228 c 0 19.559 13.936 36.523 32.778 40.392 V 60.396 H 28.38 c -1.104 0 -2 -0.896 -2 -2 V 46.29 c 0 -1.104 0.896 -2 2 -2 h 8.398 v -6.928 c 0 -11.104 6.701 -18.002 17.488 -18.002 c 4.782 0 8.598 0.366 9.557 0.495 c 0.994 0.133 1.735 0.98 1.735 1.982 v 10.828 c 0 1.104 -0.895 2 -1.999 2 l -6.377 0.002 c -3.594 0 -3.969 1.187 -3.969 3.894 v 5.729 h 9.925 c 0.575 0 1.122 0.247 1.502 0.679 c 0.379 0.432 0.555 1.005 0.481 1.576 l -1.553 12.106 c -0.128 0.998 -0.978 1.745 -1.983 1.745 H 53.214 z" style="stroke: none; stroke-width: 1; stroke-dasharray: none; stroke-linecap: butt; stroke-linejoin: miter; stroke-miterlimit: 10; fill: rgb(0,0,0); fill-rule: nonzero; opacity: 1;" transform=" matrix(1 0 0 1 0 0) " stroke-linecap="round" />
</g>
</svg>