<?xml version="1.0" encoding="UTF-8"?>
<svg id="Camada_2" data-name="Camada 2" xmlns="http://www.w3.org/2000/svg" viewBox="0 0 288.46 75">
  <defs>
    <style>
      .cls-1 {
        fill-rule: evenodd;
      }

      .cls-1, .cls-2 {
        fill: #c4a800;
      }

      .cls-3 {
        fill: #4c412a;
      }

      .cls-4 {
        fill: none;
      }
    </style>
  </defs>
  <g id="Camada_1-2" data-name="Camada 1">
    <g>
      <rect class="cls-4" width="288.46" height="75" transform="translate(288.46 75) rotate(180)"/>
      <g>
        <path class="cls-3" d="m98.49,44.56h-.61c-.96,0-1.79-.73-1.92-1.95-1.15-11.24-1.28-13.06-1.31-13.54,0-.77.57-1.15,1.47-1.15h.93v-.77h-3.03c-2.01,0-2.91,2.14-3.19,2.81-1.57,3.83-2.94,7.63-4.92,12.23-1.82-4.7-3.55-8.34-5.33-12.78-.73-1.79-1.37-2.27-2.97-2.27h-3v.77h.96c1.05,0,1.34.61,1.37,1.28l-1.12,13.51c-.03.67-.61,1.85-2.04,1.85h-.48v.8h5.56v-.8h-.32c-.7,0-.96-.61-.96-1.53,0-.54.93-12.94,1.09-12.94.06,0,.51,1.02,1.79,4.09,1.05,2.46,3.96,8.59,3.96,9.87,0,.51-.1.77-.16.93,0,.13.32.38.77.38.7,0,1.34-.26,1.82-1.25,1.57-3.39,2.84-6.68,3.8-9.07,1.18-2.94,2.01-4.92,2.11-4.92.03,0,.03.48.03.8.1,1.31.48,5.17.73,8.08.22,2.2.42,4.18.42,4.34,0,.51-.16,1.21-.93,1.21h-.32v.8h5.81v-.8Zm17.28,0c-.45,0-1.34-.48-1.72-1.57,0,0-4.44-12.2-4.82-13.29-.54-1.5-1.25-2.94-2.94-2.94-.99,0-1.47.54-1.47.8.22.03.99.16.99,1.34,0,1.5-2.27,6.13-4.79,11.15-.7,1.37-1.47,2.87-1.47,3.99,0,.51.13,1.76,1.41,1.76,1.09,0,1.57-.51,1.57-.64-.42-.03-.67-.64-.67-1.63s.83-2.91,1.44-4.22h7.35c.22.57,1.02,2.91,1.37,3.9.06.22.1.42.1.61,0,.38-.29.7-.8.73h-.64v.8h5.81v-.8h-.7Zm-11.79-6.77c2.11-4.15,2.94-6.55,3.39-7.63.93,2.49,1.79,5.14,2.75,7.63h-6.13Zm25.23-9.52c0-.54-.26-1.31-1.5-1.31-.77,0-5.08.13-5.65.13-1.88,0-2.87-.06-3.86-.06-.86,0-1.92,0-2.49.29-.77.42-.77,1.09-.77,1.44,0,.8.51,1.72.83,1.72.22-.61.7-2.24,4.25-2.24.89,0,1.05.57,1.05,1.28v13.48c0,.96-.86,1.57-1.66,1.57h-.89v.8h7.15v-.8h-.99c-.99,0-1.63-.73-1.63-1.57v-13.57c0-.57.22-1.15,1.02-1.15,1.63,0,4.12,0,4.12,2.68.93,0,1.02-1.92,1.02-2.68h0Zm14.02,12.74c-.8-1.47-2.01-3.58-3.48-3.93,1.57-.19,4.06-2.17,4.06-5.01s-2.08-5.33-6.74-5.33c-2.01,0-3.03.42-5.14.42h-2.56v.77h.77c.96,0,1.53.48,1.53,1.21v13.8c0,1.09-.51,1.63-1.53,1.63h-.77v.8h6.77v-.8h-.99c-.93,0-1.53-.64-1.53-1.63v-14.21c.86-.48,2.3-.77,3.29-.77,3.71,0,4.76,2.3,4.76,4.38,0,1.53-1.25,3.99-4.18,3.99-.89,0-1.57-.45-1.57-.45-.19.29-.29.7-.29.99,0,.67.89.89,1.31.89,2.36,0,3.86,2.94,4.92,4.92.96,1.82,1.63,3.07,2.91,3.07.83,0,1.6-.35,1.6-1.09v-.16c-1.05,0-1.5-.48-3.13-3.48h0Zm8.3-11.95c0-.61.48-1.15,1.15-1.15h.89v-.77h-6.1v.77h.77c.73,0,1.34.42,1.34,1.15v13.99c0,.83-.48,1.5-1.34,1.5h-.73v.8h6.07v-.8h-.73c-.57,0-1.31-.51-1.31-1.5v-13.99Zm29.26,15.49h-.61c-.96,0-1.79-.73-1.92-1.95-1.15-11.24-1.28-13.06-1.31-13.54,0-.77.57-1.15,1.47-1.15h.93v-.77h-3.03c-2.01,0-2.91,2.14-3.19,2.81-1.57,3.83-2.94,7.63-4.92,12.23-1.82-4.7-3.55-8.34-5.33-12.78-.73-1.79-1.37-2.27-2.97-2.27h-3v.77h.96c1.05,0,1.34.61,1.37,1.28l-1.12,13.51c-.03.67-.61,1.85-2.04,1.85h-.48v.8h5.56v-.8h-.32c-.7,0-.96-.61-.96-1.53,0-.54.93-12.94,1.09-12.94.06,0,.51,1.02,1.79,4.09,1.05,2.46,3.96,8.59,3.96,9.87,0,.51-.06.77-.16.93,0,.13.32.38.77.38.7,0,1.34-.26,1.82-1.25,1.57-3.39,2.84-6.68,3.8-9.07,1.18-2.94,2.01-4.92,2.11-4.92.03,0,.03.48.03.8.1,1.31.48,5.17.73,8.08.22,2.2.42,4.18.42,4.34,0,.51-.16,1.21-.93,1.21h-.32v.8h5.81v-.8Zm10.83,1.25c5.72,0,8.94-4.41,8.94-9.49s-3.03-9.55-9.01-9.55c-5.59,0-8.88,4.06-8.88,9.55s3.86,9.49,8.94,9.49h0Zm-6.77-9.49c.06-4.12,2.01-8.27,6.64-8.27s6.9,3.67,6.9,8.27-2.52,8.14-6.71,8.14c-4.34-.03-6.84-3.83-6.84-8.14h0Zm19.58,6.71c0,.77-.48,1.53-1.44,1.53h-.67v.8h6.32v-.8h-.83c-1.31,0-1.6-1.05-1.6-1.72v-12.55s9.29,13.51,10,14.44c.42.57,1.05.83,1.5.83.48,0,1.25,0,1.69-.54-.22,0-1.12-.67-1.12-2.11v-13.64c0-.54.29-1.34,1.31-1.34h.77v-.77h-6v.77h.93c.83,0,1.25.64,1.25,1.6v12.36l-8.46-12.52c-.89-1.31-1.53-2.2-3.58-2.2h-2.3v.77h.48c1.47,0,1.76.89,1.76,1.6v13.51Zm22.2-13.96c0-.61.48-1.15,1.15-1.15h.89v-.77h-6.1v.77h.77c.73,0,1.31.42,1.31,1.15v13.99c0,.83-.45,1.5-1.31,1.5h-.77v.8h6.1v-.8h-.77c-.54,0-1.28-.51-1.28-1.5v-13.99Zm19.48,15.49c-.45,0-1.34-.48-1.76-1.57,0,0-4.41-12.2-4.79-13.29-.54-1.5-1.25-2.94-2.94-2.94-.99,0-1.47.54-1.47.8.19.03.99.16.99,1.34,0,1.5-2.27,6.13-4.79,11.15-.7,1.37-1.47,2.87-1.47,3.99,0,.51.13,1.76,1.37,1.76,1.12,0,1.57-.51,1.57-.64-.38-.03-.67-.64-.67-1.63s.83-2.91,1.47-4.22h7.35c.19.57.99,2.91,1.34,3.9.1.22.13.42.13.61,0,.38-.29.7-.8.73h-.67v.8h5.81v-.8h-.67Zm-11.79-6.77c2.08-4.15,2.91-6.55,3.39-7.63.89,2.49,1.79,5.14,2.75,7.63h-6.13Zm16.32-8.66c0-.77.67-1.21,1.34-1.21h1.05v-.77h-6.45v.77h.7c1.31,0,1.41.96,1.41,1.34v13.93c0,.51-.38,1.21-1.37,1.21h-.77v.99h8.18c2.65,0,5.17-.61,5.17-3.07,0-.86-.64-1.47-1.34-1.47-.29,0-.64.06-.73.1,0,0,.13.19.13.73,0,1.72-2.33,2.52-3.93,2.52-3.03,0-3.39-.38-3.39-1.18v-13.89Zm13.42,0c0-.77.67-1.21,1.31-1.21h1.09v-.77h-6.45v.77h.67c1.31,0,1.41.96,1.41,1.34v13.93c0,.51-.38,1.21-1.37,1.21h-.77v.99h8.21c2.62,0,5.14-.61,5.14-3.07,0-.86-.64-1.47-1.34-1.47-.29,0-.64.06-.73.1,0,0,.13.19.13.73,0,1.72-2.33,2.52-3.93,2.52-3,0-3.35-.38-3.35-1.18v-13.89Z"/>
        <path class="cls-2" d="m75.01,58.49c1.82,0,2.78-1.34,2.78-2.75,0-1.53-1.12-2.62-2.68-2.62s-2.78,1.12-2.78,2.71,1.05,2.65,2.68,2.65h0Zm-.06-4.95c1.41,0,2.08,1.25,2.08,2.33s-.64,2.2-1.88,2.2-2.01-1.15-2.01-2.36c0-1.05.64-2.11,1.82-2.17h0Zm15.33-.16c-.22-.13-.64-.26-.89-.26-.64,0-.99.38-1.28.77v-.77l-1.25.38v.1c.29.06.45.35.45.57v3.45c0,.22-.16.64-.42.64v.13h1.6v-.13c-.22,0-.38-.42-.38-.64v-3.23c.29-.26.77-.64,1.12-.64.29,0,.48.03.67.35l.38-.73Zm12.33,7.6h1.6v-.1c-.26,0-.38-.45-.38-.7v-7.15l-.73.8c-.32-.35-.96-.7-1.53-.7-1.57,0-2.56,1.34-2.56,2.68s.83,2.68,2.59,2.68c.73,0,1.12-.26,1.41-.64v2.33c0,.26-.13.7-.38.7v.1Zm-.96-2.91c-1.15-.03-1.85-1.28-1.85-2.43,0-1.02.61-2.08,1.69-2.08.73,0,1.5.54,1.5,1.5v1.66c0,.73-.64,1.34-1.34,1.34h0Zm16.67-4.98l-1.25.38v.13c.42,0,.42.32.42.61v2.62c0,.35-.51,1.25-1.37,1.25-.8,0-1.41-.61-1.41-1.85v-3.13l-1.25.38v.13c.45,0,.45.32.45.61v1.76c0,1.05.19,2.56,2.11,2.56.77,0,1.21-.45,1.47-.8v.67h1.18v-.13c-.26,0-.35-.42-.35-.67v-4.5Zm14.53,2.81c0-1.6-.8-2.78-2.43-2.78-1.85,0-2.62,1.41-2.62,2.62,0,1.92,1.31,2.75,2.78,2.75.93,0,1.44-.29,1.76-.48.16-.1.29-.16.38-.16v-.93h-.1c-.19.7-1.15,1.15-1.88,1.15-1.34,0-2.04-1.02-2.17-2.17h4.28Zm-2.49-2.36c1.12,0,1.69.99,1.72,1.92h-3.51c.1-.89.67-1.92,1.79-1.92h0Zm15.17,3.45c0-.93-.99-1.31-1.92-1.6-.73-.22-1.44-.48-1.44-1.02,0-.35.35-.83,1.18-.83.64,0,1.31.29,1.63.83h.1v-.86c-.19,0-.32-.03-.48-.13-.22-.1-.54-.26-1.18-.26-1.47,0-2.01.67-2.01,1.44,0,.89.96,1.21,1.82,1.5.73.22,1.5.48,1.5,1.12s-.73.89-1.31.89c-.83,0-1.72-.7-1.82-1.18h-.13v.96c.19,0,.38.1.57.22.32.19.73.42,1.44.42,1.15,0,2.04-.64,2.04-1.5h0Zm11.69-3.35v-.42h-1.41v-2.2l-1.21.42v.13c.38,0,.42.29.42.57v1.09h-.7v.42h.7v2.81c0,.93,0,1.95,1.18,1.95.48,0,.67-.16.83-.29.03-.03.1-.06.19-.06v-.89h-.13c-.1.45-.42.83-.77.83-.48,0-.51-.51-.51-1.37v-2.97h1.41Zm12.3-.26c-.22-.13-.64-.26-.89-.26-.64,0-.99.38-1.28.77v-.77l-1.25.38v.1c.29.06.45.35.45.57v3.45c0,.22-.16.64-.42.64v.13h1.63v-.13c-.26,0-.42-.42-.42-.64v-3.23c.29-.26.77-.64,1.12-.64.29,0,.48.03.7.35l.35-.73Zm13.26,5.01v-.13c-.26,0-.42-.32-.42-.67v-2.43c0-1.02-.29-2.04-2.11-2.04-.8,0-1.18.29-1.41.38-.16.06-.26.13-.42.16v.89h.13c.19-.45.64-1.02,1.47-1.02.51,0,1.47.22,1.53,1.5-2.11.54-3.35,1.02-3.35,2.17,0,.7.48,1.28,1.63,1.28.73,0,1.28-.26,1.66-.64l.06-.06v.61h1.21Zm-1.34-1.02c-.35.38-.73.64-1.28.64-.7,0-1.15-.38-1.15-.89,0-.96,1.63-1.44,2.46-1.63l.1-.03v1.79l-.13.13Zm18.94-.32c-.35-.29-.77-.61-1.09-.93.35-.54.61-1.37.73-2.08.1-.38.16-.8.22-1.25.03-.22.26-.38.42-.38v-.13h-1.28v.13c.19,0,.38.19.38.42,0,.35-.13,1.72-.8,3.07-.8-.64-1.6-1.34-2.36-1.95.93-.54,1.28-1.25,1.28-1.85,0-.96-.67-1.88-1.92-1.88-1.05,0-1.82.83-1.82,1.79,0,.67.45,1.31,1.21,1.95-1.34.64-1.85,1.41-1.85,2.56,0,1.05.86,2.01,2.33,2.01,1.15,0,2.08-.48,2.97-1.69l1.21.96c.42.35.86.61,1.5.61h.7v-.13c-.26,0-.54-.19-.83-.38-.16-.1-.32-.26-.51-.38l-.51-.45Zm-5.46-5.11c-.03-.06-.03-.16-.03-.22,0-.61.35-1.09.89-1.09.99,0,1.47.83,1.47,1.6,0,.51-.38,1.12-1.02,1.37-.61-.51-1.21-1.05-1.31-1.66h0Zm1.31,6.13c-1.12-.03-1.95-.96-1.95-1.82,0-.73.48-1.5,1.47-1.98l2.75,2.3c-.64.89-1.47,1.5-2.27,1.5h0Zm19.07-4.95c-.45,0-1.05.26-1.41.61v-3.51l-1.25.38v.13c.42,0,.42.29.42.57v6.29c0,.26-.13.67-.38.67v.13h1.21v-.54c.29.35.83.64,1.44.64,1.69,0,2.59-1.37,2.59-2.71s-.86-2.65-2.62-2.65h0Zm.13,4.95c-.73,0-1.53-.57-1.53-1.53v-1.53c0-.8.67-1.44,1.37-1.44,1.21,0,1.88,1.18,1.88,2.36,0,1.05-.54,2.08-1.72,2.14h0Zm16.03.32v-.13c-.22,0-.38-.32-.38-.67v-2.43c0-1.02-.32-2.04-2.14-2.04-.77,0-1.15.29-1.41.38-.16.06-.26.13-.38.16v.89h.1c.22-.45.64-1.02,1.5-1.02.48,0,1.47.22,1.53,1.5-2.11.54-3.35,1.02-3.35,2.17,0,.7.48,1.28,1.6,1.28.77,0,1.28-.26,1.69-.64l.06-.06v.61h1.18Zm-1.31-1.02c-.35.38-.73.64-1.28.64-.7,0-1.18-.38-1.18-.89,0-.96,1.66-1.44,2.46-1.63l.13-.03v1.79l-.13.13Zm15.49-2.14c0-.96-.61-2.14-2.17-2.14-.89,0-1.34.42-1.57.67v-.67l-1.25.38v.13c.38,0,.42.32.42.61v3.39c0,.26-.16.67-.38.67v.13h1.6v-.13c-.26,0-.38-.42-.38-.67v-2.71c0-.7.73-1.34,1.47-1.34s1.44.57,1.44,1.76v2.3c0,.26-.13.67-.38.67v.13h1.6v-.13c-.26,0-.38-.42-.38-.67v-2.36Zm14.72,3.16v-.13c-.26,0-.38-.42-.38-.67v-7.41l-1.25.38v.13c.42,0,.42.32.42.61v2.4c-.29-.35-.89-.57-1.44-.57-1.69,0-2.56,1.37-2.56,2.71s.8,2.65,2.56,2.65c.7,0,1.18-.32,1.44-.64v.54h1.21Zm-2.56-.32c-1.21-.03-1.88-1.28-1.88-2.4,0-.99.64-2.11,1.72-2.11.64,0,1.5.57,1.5,1.5v1.69c0,.73-.64,1.31-1.34,1.31h0Zm16.23.32v-.13c-.26,0-.42-.32-.42-.67v-2.43c0-1.02-.29-2.04-2.11-2.04-.77,0-1.15.29-1.41.38-.16.06-.26.13-.38.16v.89h.1c.19-.45.64-1.02,1.47-1.02.51,0,1.5.22,1.57,1.5-2.14.54-3.39,1.02-3.39,2.17,0,.7.48,1.28,1.63,1.28.77,0,1.28-.26,1.69-.64l.06-.06v.61h1.18Zm-1.34-1.02c-.32.38-.73.64-1.28.64-.67,0-1.15-.38-1.15-.89,0-.96,1.66-1.44,2.46-1.63l.13-.03v1.79l-.16.13Z"/>
        <g>
          <path class="cls-1" d="m31.71,21.45c-2.52-.71-5.13-1.07-7.75-1.07-1.75,0-3.18,1.42-3.18,3.18,0,11.21,6.55,21.39,16.76,26.04-2.35.65-4.78.98-7.22.98-1.13,0-2.25-.07-3.37-.21-7.94-6.64-12.52-16.46-12.52-26.8,0-5.26,4.27-9.53,9.53-9.53,4.86,0,9.66,1.01,14.1,2.97-2.27,1.26-4.4,2.75-6.36,4.46h0Zm27.21,2.11c0-1.75-1.42-3.18-3.18-3.18-12.55,0-23.65,8.19-27.34,20.19-1.7-2.09-3.07-4.43-4.07-6.93,5.86-12.01,18.05-19.62,31.41-19.62,5.27,0,9.53,4.27,9.53,9.53,0,6.6-1.87,13.07-5.4,18.66-.57-2.98-1.49-5.88-2.77-8.63,1.19-3.21,1.81-6.6,1.81-10.02h0Zm-37.85,23.1c-.19.76-.29,1.54-.29,2.32,0,5.27,4.27,9.53,9.53,9.53,7.37,0,14.54-2.33,20.51-6.64.1-.96.15-1.93.15-2.89,0-1.73-.17-3.45-.49-5.14-5.36,5.33-12.61,8.32-20.17,8.32-1.36,0-2.72-.1-4.06-.29-1.89-1.56-3.64-3.3-5.19-5.21h0Zm20.17-20.47c7.13,5.41,11.32,13.84,11.32,22.79,0,1.26-.08,2.51-.24,3.76-2.89,2.18-6.09,3.92-9.49,5.16,2.16.41,4.35.62,6.55.62,5.27,0,9.53-4.27,9.53-9.53,0-9.79-4.11-19.14-11.33-25.76-2.24.71-4.37,1.7-6.35,2.96h0Z"/>
          <path class="cls-1" d="m50.06,41.53c.27,0,.48.22.48.48s-.22.48-.48.48-.48-.22-.48-.48.22-.48.48-.48h0Z"/>
          <path class="cls-1" d="m29.64,41.53c.26,0,.48.22.48.48s-.22.48-.48.48-.48-.22-.48-.48.21-.48.48-.48h0Z"/>
          <path class="cls-1" d="m39.85,26.67c.27,0,.48.22.48.48s-.21.48-.48.48-.48-.21-.48-.48.22-.48.48-.48h0Z"/>
        </g>
      </g>
    </g>
  </g>
</svg>