<?xml version="1.0" encoding="UTF-8"?>
<svg id="Camada_2" data-name="Camada 2" xmlns="http://www.w3.org/2000/svg" viewBox="0 0 30 30">
  <defs>
    <style>
      .cls-1 {
        fill: #fff;
      }

      .cls-2 {
        fill: #1677ef;
      }
    </style>
  </defs>
  <g id="Camada_1-2" data-name="Camada 1">
    <g>
      <path class="cls-2" d="m30,15C30,6.72,23.28,0,15,0S0,6.72,0,15c0,7.49,5.49,13.69,12.66,14.82v-10.48h-3.81v-4.34h3.81v-3.3c0-3.76,2.24-5.84,5.67-5.84,1.64,0,3.36.29,3.36.29v3.69h-1.89c-1.86,0-2.44,1.16-2.44,2.34v2.81h4.16l-.67,4.34h-3.5v10.48c7.17-1.13,12.66-7.33,12.66-14.82Z"/>
      <path class="cls-1" d="m20.84,19.34l.67-4.34h-4.16v-2.81c0-1.19.58-2.34,2.44-2.34h1.89v-3.69s-1.72-.29-3.36-.29c-3.43,0-5.67,2.08-5.67,5.84v3.3h-3.81v4.34h3.81v10.48c.76.12,1.55.18,2.34.18s1.58-.06,2.34-.18v-10.48h3.5Z"/>
    </g>
  </g>
</svg>