<?xml version="1.0" encoding="UTF-8"?>
<svg id="Camada_2" data-name="Camada 2" xmlns="http://www.w3.org/2000/svg" viewBox="0 0 150 30">
  <defs>
    <style>
      .cls-1 {
        fill-rule: evenodd;
      }

      .cls-1, .cls-2 {
        fill: #fff;
      }

      .cls-2 {
        font-family: Lato-Black, Lato;
        font-size: 12.6px;
        font-weight: 800;
      }

      .cls-3 {
        fill: none;
      }

      .cls-4 {
        letter-spacing: -.08em;
      }

      .cls-5 {
        fill: #00b451;
      }
    </style>
  </defs>
  <g id="Camada_1-2" data-name="Camada 1">
    <g>
      <rect class="cls-5" x="0" y="0" width="150" height="30" rx="15" ry="15"/>
      <text class="cls-2" transform="translate(16.09 19.19)"><tspan class="cls-4" x="0" y="0">F</tspan><tspan x="6.01" y="0">ALE CONOSCO!</tspan></text>
    </g>
    <g>
      <circle class="cls-3" cx="135" cy="15" r="15"/>
      <g id="WA_Logo" data-name="WA Logo">
        <path class="cls-1" d="m142.22,7.97c-1.8-1.8-4.19-2.79-6.73-2.79-5.24,0-9.51,4.27-9.52,9.51,0,1.68.44,3.31,1.27,4.76l-1.35,4.93,5.04-1.32c1.39.76,2.95,1.16,4.55,1.16h0c5.24,0,9.51-4.27,9.52-9.51,0-2.54-.99-4.93-2.78-6.73Zm-6.73,14.64h0c-1.42,0-2.81-.38-4.03-1.1l-.29-.17-2.99.78.8-2.92-.19-.3c-.79-1.26-1.21-2.71-1.21-4.21,0-4.36,3.55-7.91,7.91-7.91,2.11,0,4.1.82,5.59,2.32,1.49,1.49,2.32,3.48,2.31,5.59,0,4.36-3.55,7.91-7.91,7.91Zm4.34-5.92c-.24-.12-1.41-.69-1.62-.77-.22-.08-.38-.12-.53.12-.16.24-.61.77-.75.93s-.28.18-.52.06c-.24-.12-1-.37-1.91-1.18-.71-.63-1.18-1.41-1.32-1.65-.14-.24-.01-.37.1-.49.11-.11.24-.28.36-.42s.16-.24.24-.4.04-.3-.02-.42c-.06-.12-.54-1.29-.73-1.76-.19-.46-.39-.4-.54-.41-.14,0-.3,0-.46,0s-.42.06-.63.3c-.22.24-.83.81-.83,1.98s.85,2.3.97,2.46,1.68,2.56,4.06,3.59c.57.24,1.01.39,1.36.5.57.18,1.09.16,1.5.09.46-.07,1.41-.58,1.6-1.13s.2-1.03.14-1.13c-.06-.1-.22-.16-.46-.28Z"/>
      </g>
    </g>
  </g>
</svg>