<?xml version="1.0" encoding="UTF-8"?>
<svg id="Camada_2" data-name="Camada 2" xmlns="http://www.w3.org/2000/svg" viewBox="0 0 30 30">
  <defs>
    <style>
      .cls-1 {
        fill: #fff;
      }

      .cls-2 {
        fill: #fc0000;
      }
    </style>
  </defs>
  <g id="Camada_1-2" data-name="Camada 1">
    <g>
      <circle class="cls-2" cx="15" cy="15" r="15"/>
      <path class="cls-1" d="m24.58,10.19c-.23-.86-.91-1.54-1.77-1.77-1.56-.42-7.81-.42-7.81-.42,0,0-6.25,0-7.81.42-.86.23-1.54.91-1.77,1.77-.42,1.56-.42,4.81-.42,4.81,0,0,0,3.25.42,4.81.23.86.91,1.54,1.77,1.77,1.56.42,7.81.42,7.81.42,0,0,6.25,0,7.81-.42.86-.23,1.54-.91,1.77-1.77.42-1.56.42-4.81.42-4.81,0,0,0-3.25-.42-4.81Zm-11.58,7.81v-6l5.2,3-5.2,3Z"/>
    </g>
  </g>
</svg>