<?xml version="1.0" encoding="UTF-8"?>
<!DOCTYPE svg PUBLIC "-//W3C//DTD SVG 1.1//EN" "http://www.w3.org/Graphics/SVG/1.1/DTD/svg11.dtd">
<!-- Creator: CorelDRAW 2019 (64 Bit) -->
<svg xmlns="http://www.w3.org/2000/svg" xml:space="preserve" width="5mm" height="7mm" version="1.1" style="shape-rendering:geometricPrecision; text-rendering:geometricPrecision; image-rendering:optimizeQuality; fill-rule:evenodd; clip-rule:evenodd"
viewBox="0 0 500 700"
 xmlns:xlink="http://www.w3.org/1999/xlink">
 <defs>
  <style type="text/css">
   <![CDATA[
    .fil0 {fill:aqua}
   ]]>
  </style>
 </defs>
 <g id="Camada_x0020_1">
  <metadata id="CorelCorpID_0Corel-Layer"/>
  <g id="_2282983587056">
   <path class="fil0" d="M248.89 624.4c5.77,1.35 15.81,1.54 21.86,2.31 3.44,0.38 8.39,0.77 11.14,0.96 4.68,0.38 7.7,0.96 12.1,0.96 -1.1,4.81 -4.95,10.19 -7.01,14.61l-22 43.84c-0.14,-4.42 -9.9,-37.49 -12.1,-46.53 -1.24,-4.81 -3.44,-11.34 -3.99,-16.15zm-21.87 61.91c-3.02,-2.5 -5.77,-9.61 -7.7,-13.84 -1.37,-2.7 -2.34,-5 -3.57,-7.31 -1.24,-2.69 -2.34,-4.23 -3.72,-7.11l-14.02 -29.42 22.55 -1.92c6.33,-0.58 16.78,-0.96 22.69,-2.31 -3.3,14.42 -8.39,30.76 -12.1,45.76 -1.24,4.61 -3.71,11.34 -4.13,16.15zm219.21 -89.02c-0.14,0.19 -0.28,0 -0.41,0.38 0,0.2 -0.42,0.2 -0.42,0.39l-31.35 16.15c-43.04,22.69 -89.94,45.18 -132.98,67.87 -3.71,1.92 -7.57,3.84 -11.28,5.96l10.73 -22.69c1.92,-4.04 3.57,-6.73 5.64,-10.96l11.27 -23.07c1.52,-2.88 1.38,-2.31 4.82,-3.27 2.75,-0.77 4.53,-0.96 7.42,-1.54 12.52,-2.69 130.92,-29.22 136.56,-29.22zm-400.46 0c5.78,0 126.38,27.11 142.75,30.38 7.29,1.54 5.22,2.69 11.14,14.61l22.55 45.76c-18.98,-10.57 -45.38,-23.07 -66.01,-34.03l-110.43 -56.72zm400.46 0l1.65 -0.96 -1.65 0.96zm-400.46 0l-1.78 -0.58 1.78 0.58zm257.03 26.34c1.65,-3.27 3.71,-5.77 5.63,-8.65 10.18,-14.23 88.7,-125.17 91.04,-127.09 4.4,8.65 17.19,27.69 22.83,37.88 2.75,4.8 5.23,8.26 7.84,12.88 3.85,6.73 29.98,48.07 30.67,50.95l-137.94 29.61c-6.05,1.34 -14.16,3.84 -20.07,4.42zm-209.45 -135.74c0.69,3.08 0.69,1.92 2.48,4.23l8.94 12.5c4.26,5.96 7.84,10.96 12.1,16.92l48.41 67.87c4.12,5.96 7.84,10.96 12.1,16.92l11.83 17.3 -158.01 -34.03c0.68,-2.69 2.06,-4.04 3.57,-6.35 1.51,-2.5 2.34,-4.23 3.72,-6.34 2.75,-4.23 5.08,-8.46 7.83,-12.88 6.88,-10.58 43.87,-73.83 47.03,-76.14zm104.66 30.57c3.57,-0.19 9.35,-2.31 12.37,-3.27 4.13,-1.15 7.7,-2.31 11.69,-3.65l23.66 -7.31c3.71,-0.19 43.04,14.04 48.26,14.23l0 1.73c-5.22,0.39 -44.69,15.96 -47.58,15.96 -4.4,0 -42.9,-15.57 -48.4,-15.96l0 -1.73zm79.9 -64.41c2.2,4.62 4.26,10.38 6.32,15.19 2.34,5.77 18.43,43.64 19.39,48.26 -4.54,-1.15 -9.21,-2.89 -13.75,-4.23 -7.01,-1.92 -37.68,-12.31 -41.81,-12.69 0,-3.08 -0.13,-6.35 -0.13,-9.42 0.13,-6.73 5.22,-9.42 11.96,-17.11 1.79,-1.93 2.06,-2.89 3.99,-5l14.03 -15zm-89.53 63.45c0.41,-5.19 24.48,-57.68 25.03,-63.45 2.75,0.77 3.3,1.92 4.81,4.23l22.42 25.38c4.67,5.96 3.3,2.31 3.3,16.92 -3.99,0.38 -9.77,2.69 -13.89,4.04 -4.81,1.34 -9.35,3.07 -13.62,4.23 -4.81,1.54 -9.48,3.07 -13.75,4.23l-14.3 4.42zm86.22 -66.91l0 0zm-57.2 0l0 0zm-73.3 -15.19l52.39 0c3.44,0 11.28,12.11 14.44,14.42l-27.36 67.68c-10.59,-5.77 -26.13,-19.42 -35.48,-24.61l-3.17 -49.99c-0.27,-3.46 -0.82,-3.85 -0.82,-7.5zm199.81 57.49c-9.07,5.19 -24.89,18.84 -35.48,24.61 -1.23,-2.31 -2.2,-5.38 -3.43,-8.27 -1.24,-3.07 -2.07,-5 -3.3,-8.27l-20.63 -50.37c1.65,-2.69 11.69,-15.19 14.44,-15.19l52.39 0c0,3.65 -0.55,2.88 -0.69,6.73l-3.3 50.76zm4.82 -15.19l2.47 -35.57c0.69,-15.57 11.97,-34.03 15.27,-49.22 1.92,1.54 1.65,2.11 2.75,4.81l11.69 28.45c1.51,4.04 3.16,8.08 4.95,11.73 -4.13,2.88 -5.78,6.35 -9.08,10l-28.05 29.8zm-223.2 -84.79l13.21 37.68c2.2,5.96 2.75,26.15 3.57,34.61 0.28,2.12 0,4.23 0.14,6.54 0.27,2.69 0.69,3.08 0.82,5.96l-27.64 -29.42c-1.92,-2.11 -3.02,-3.07 -4.67,-5.38 -1.52,-2.12 -2.62,-3.46 -4.82,-5 1.65,-3.46 3.03,-7.5 4.68,-11.34 1.79,-4.43 11.96,-31.54 14.71,-33.65zm149.07 57.68l6.06 -12.31c1.92,-3.65 4.26,-9.42 6.87,-11.53 0.69,3.27 1.65,3.65 2.34,6.92 -2.06,3.27 -4.81,5.19 -7.43,8.27 -2.75,3.27 -4.26,6.15 -7.84,8.65zm-57.2 0c-6.33,-4.61 -9.77,-12.5 -16.09,-16.92 1.37,-2.11 2.47,-3.84 3.16,-6.92 2.06,1.73 12.51,21.73 12.93,23.84zm-118.41 -26.34l0.83 1.73 -0.83 -1.73zm149.07 56.91l0 -56.91 35.48 0 -15.95 29.99c-2.61,5.39 -4.95,10.39 -8.52,14.81 -1.24,1.34 -10.18,11.34 -11.01,12.11zm-39.46 -56.91l35.34 0 0 56.91 -10.59 -11.73c-3.85,-4.23 -20.35,-36.14 -24.75,-45.18zm90.21 -49.99c3.3,2.31 3.3,3.65 5.77,6.54l37.55 46.14c1.92,2.12 1.92,1.15 2.61,4.04l-51.57 0c-2.75,-12.5 -6.6,2.31 -0.41,-27.5l6.05 -29.22zm-100.8 56.72l-51.57 0 11.55 -14.04c2.2,-2.69 3.44,-4.42 5.64,-6.92 6.05,-6.73 25.03,-32.49 29.56,-35.76l6.05 29.42c1.1,5.38 2.07,9.23 3.17,14.42 0.68,4.03 0.68,3.84 -0.97,7.11 -1.23,2.31 -2.06,3.85 -3.43,5.77zm99.15 193.42c-16.64,0 -37.41,-4.04 -49.1,-4.23l0 -78.06c0,-3.08 6.33,-4.04 11.97,-5.96 7.01,-2.5 39.33,-14.42 41.94,-14.42 7.43,0 2.48,4.23 10.04,-1.35 3.16,-2.3 5.64,-3.84 8.66,-5.96l25.99 -18.65c3.44,-4.03 -0.82,-7.88 2.62,-12.49l31.9 -35c13.34,-15.19 4.13,-1.92 15.54,-21.72l16.5 -29.42 -13.34 73.25c-3.3,17.31 -2.2,12.69 -13.75,28.84l-31.08 43.65c-1.65,2.5 -2.88,3.65 -4.53,6.15l-35.62 49.99c-3.03,4.23 -5.92,8.27 -8.94,12.5 -2.89,4.04 -6.6,8.65 -8.8,12.88zm-218.38 -227.26l2.75 4.81c6.6,11.72 16.78,33.26 25.3,42.1 2.75,2.89 4.13,5.19 6.74,8.08 5.09,5.19 9.49,10 14.58,15.19l10.45 11.92c1.1,1.15 2.89,2.69 3.57,3.84 2.89,4.23 0.83,9.23 2.89,12.31l38.78 27.68c2.2,0.39 3.17,-1.34 6.19,-1.34 2.61,0 34.52,11.73 41.39,14.23 5.37,1.92 12.52,3.07 12.52,6.15l0 78.06c-2.48,0 -8.53,0.96 -11.55,1.35l-37.55 2.88c-1.65,-3.27 -2.2,-3.27 -3.98,-5.96 -1.65,-2.12 -2.89,-3.85 -4.54,-6.35l-89.11 -124.97c-4.54,-6.15 -3.17,-6.73 -5.09,-16.73l-10.04 -54.6c-1.1,-5.96 -2.61,-12.69 -3.3,-18.65zm165.16 -45.95l4.12 -1.54 0 -79.6 47.45 44.03 0 29.42c2.34,0.77 2.2,0 3.16,3.07 0.96,3.27 -0.55,9.42 -1.65,12.5l2.61 0 0 -42.49 41.95 0 22.82 70.18 -9.9 28.26c-1.65,4.61 -3.98,9.81 -4.95,14.42 -1.24,-0.96 -5.36,-5.96 -6.6,-7.5l-25.85 -32.11c-1.51,-1.92 -1.79,-2.5 -3.16,-4.23l-9.77 -11.92c-2.47,-3.07 -4.54,-4.03 -4.54,-9.61l-4.12 0.77c0,11.15 -7.98,44.22 -10.45,55.18l-37 0 0 -47.49c1.79,-0.96 5.37,-1.92 6.47,-3.27l0.96 -4.23c-2.34,0.39 -5.09,1.73 -7.43,2.89 -1.23,1.73 -1.1,2.49 -1.65,4.8 -0.96,3.85 -0.27,2.69 -2.47,4.42l0 42.88 -35.34 0c-3.44,-0.77 -2.2,-0.77 -2.89,-4.61 -0.83,-4.43 -1.79,-8.85 -2.62,-12.5 -1.23,-6.54 -7.28,-32.5 -7.42,-37.88 -0.14,-5 0,-10.38 0,-15.38 4.67,1.15 6.6,2.88 10.73,4.81l32.31 15.57 2.07 -3.46c-10.73,-5.96 -22.42,-10.96 -33.56,-16.34l-11.55 -5.58c0,-6.34 -1.65,-26.72 0.96,-30.38l47.31 -44.22 0 81.14zm-155.54 -10.77c2.48,1.73 27.65,37.3 29.98,40.57 5.23,7.31 4.82,5.38 -3.02,24.03l-10.73 25.19 -16.23 -89.79zm299.11 89.79c-2.07,-2.5 -7.84,-17.69 -9.22,-20.96 -11.14,-27.68 -13.34,-15.96 7.84,-45.56 2.2,-3.08 14.99,-21.54 17.47,-23.27 -5.64,25.38 -10.45,64.22 -16.09,89.79zm-245.06 -0.77l-12.38 -34.61c-0.69,-1.92 -2.06,-4.8 -2.47,-6.73 -1.1,-4.61 22,-64.21 22.14,-71.52l42.63 0 0 39.8c0,10 1.37,10.96 -3.71,16.34l-27.51 34.03c-2.89,3.08 -16.23,20.96 -18.7,22.69zm203.11 -114.59l29.16 -33.65c3.85,-5.19 8.66,-8.84 9.49,-12.11l11.55 32.88c1.92,5.57 3.3,10.19 5.09,15.76 5.22,16.54 8.11,8.08 -15.54,39.99 -2.34,3.08 -15.4,22.31 -18.02,24.23 -1.24,-5.77 -3.44,-10.77 -5.36,-16.53l-13.62 -41.53c-0.96,-2.7 -1.78,-6.73 -2.75,-9.04zm-220.85 67.1c-3.16,-2.31 -33.14,-44.61 -36.03,-48.84 -2.2,-3.07 -1.51,-2.88 -0.41,-6.53 0.96,-3.46 1.65,-4.81 2.61,-8.27l15.26 -49.22c2.89,2.11 37.27,40.95 40.3,45.76l-16.23 49.99c-1.79,5 -4.26,11.34 -5.5,17.11zm267.61 44.03l13.62 -76.33c3.85,-20.38 0.55,-15 9.07,-24.42 5.78,-6.15 21.87,-26.72 26.4,-29.8l-17.18 72.68 -7.84 14.61c-2.48,4.61 -5.5,9.61 -7.98,14.42l-16.09 28.84zm-293.33 -1.73l-31.63 -56.72 -16.77 -72.1 25.58 29.03c9.48,10.39 5.91,4.42 9.62,23.65 1.24,5.96 13.2,70.95 13.2,76.14zm202.98 -111.9c0.83,-2.88 8.94,-16.15 11,-19.8 7.15,-12.89 2.34,-9.23 17.6,-12.89l49.65 -11.34 -32.04 36.72c-6.88,8.66 -4.27,7.31 -15.54,7.31 -10.18,0 -20.36,0 -30.67,0zm-190.19 -44.03l49.1 11.15c15.12,3.85 10.45,-0.38 17.87,12.5 3.85,6.73 7.71,13.27 11.28,20.38l-37.13 0c-5.91,-0.19 -5.78,-4.04 -12.24,-10.77l-28.88 -33.26zm277.24 -3.46c4.95,-0.38 42.36,-22.11 49.23,-23.65l3.3 27.88c1.93,17.11 3.58,16.15 -4.4,24.42 -6.6,6.73 -24.48,29.61 -29.56,33.26 -0.55,-6.54 -18.29,-54.6 -18.57,-61.91zm-304.6 61.91c-3.58,-2.5 -6.47,-5.96 -9.22,-9.81l-17.74 -20.38c-9.35,-12.88 -10.17,-0.19 -6.32,-32.87 0.96,-7.89 1.1,-15.58 2.61,-22.5l36.3 17.69c3.17,1.73 9.22,5.58 12.93,5.96 -0.14,7.11 -18.01,54.22 -18.56,61.91zm236.12 -49.22l20.76 -53.64c1.38,-3.66 6.46,-15.38 6.6,-18.46 2.62,1.92 26.82,43.26 30.67,50.18 1.24,2.31 3.44,5.19 3.99,7.5 -20.49,5 -41.4,9.42 -62.02,14.42zm-176.44 -72.1c0.27,4.23 17.46,46.53 20.35,54.03 2.2,5.76 4.54,13.07 7.02,18.07 -20.63,-5 -41.54,-9.23 -62.03,-14.42l7.98 -14.42c3.03,-4.61 5.78,-9.61 8.8,-14.42 2.75,-4.61 15.27,-26.92 17.88,-28.84zm153.06 105.17l-37.27 -35.38c-14.44,-14.61 -11.83,-6.34 -11.83,-28.07 0,-2.5 7.15,-7.5 9.08,-9.23 1.79,-1.54 3.03,-2.5 4.95,-4.04l44.14 -37.49c1.79,-1.73 2.75,-2.69 4.82,-4.42 1.65,-1.35 3.16,-2.5 4.81,-4.04 3.58,-3.07 6.88,-6.15 10.31,-8.65 4.13,2.89 6.33,7.11 9.91,10.77 3.57,3.65 6.6,6.73 9.48,11.15 -1.23,5.77 -28.87,76.52 -33.41,84.6 -2.34,4.03 -12.52,23.07 -14.99,24.8zm-150.72 -109.4l19.39 -21.92c1.51,0.96 3.3,2.69 4.95,4.04l14.58 12.69c6.87,5.77 12.92,10.77 19.66,16.53l14.71 12.5c1.93,1.73 3.03,2.69 4.82,4.42l17.46 14.62c1.38,1.34 1.93,0.38 1.93,3.07 0,25.57 1.1,13.27 -17.88,33.65l-12.1 11.73c-2.75,2.5 -3.85,3.26 -6.46,5.96 -2.48,2.69 -3.99,3.65 -6.47,5.96 -2.2,2.3 -3.71,4.42 -6.19,6.15 -2.47,-1.73 -5.63,-8.27 -7.56,-11.54 -2.48,-4.61 -4.54,-8.46 -7.15,-12.88 -2.89,-5 -3.99,-7.5 -6.19,-12.88 -1.79,-5 -3.44,-9.61 -5.5,-14.61 -3.85,-9.62 -7.29,-18.46 -11,-28.27 -2.06,-5.19 -3.58,-9.22 -5.5,-14.42l-5.5 -14.8zm213.56 -25.38l70.55 56.53c2.34,1.73 2.75,3.07 5.23,3.65l0 1.73c-6.05,1.54 -42.22,22.11 -49.1,23.65l-18.29 -30.76c-1.92,-3.08 -17.74,-28.27 -17.6,-30.77 0,-1.15 8.39,-22.3 9.21,-24.03zm-254.68 85.56c-6.88,-1.54 -16.92,-8.27 -24.34,-11.54 -4.13,-1.92 -7.98,-4.23 -11.83,-6.15 -3.16,-1.73 -9.49,-5.19 -12.93,-5.96 0.56,-2.31 0.83,-1.92 3.86,-4.42 1.78,-1.35 2.75,-2.12 4.67,-3.65 3.58,-2.7 5.91,-4.81 9.49,-7.7 3.58,-2.69 6.19,-4.8 9.76,-7.69 3.58,-2.69 6.05,-5 9.49,-7.69 6.74,-5.19 12.65,-10.19 19.26,-15.38 3.43,-2.69 6.32,-5.19 9.48,-7.69 3.03,-2.5 6.6,-5.57 9.77,-7.69l9.21 23.46c0.41,2.5 -3.85,8.26 -5.22,10.38l-30.67 51.72zm-70 -69.41c0,-2.11 1.24,-0.19 0.41,0 0,0 -0.41,2.31 -0.41,0zm420.67 -0.96l0.14 0.38c0,0 -0.28,-0.19 -0.14,-0.38zm1.51 -2.5l-0.41 1.92 0.41 -1.92zm-423 0l0.82 1.73 -0.82 -1.73zm423.83 -2.5c0,4.04 0,1.54 -0.83,2.5 0,-4.04 0,-1.54 0.83,-2.5zm-424.66 0c0.83,0.96 0.83,-1.54 0.83,2.5 -0.83,-0.96 -0.83,1.54 -0.83,-2.5zm214.39 54.22l-0.13 -93.25c0,-3.85 0.27,-5 2.06,-7.31 2.75,-3.65 17.6,-22.68 20.63,-24.8l45.65 52.68c2.48,2.5 5.78,4.62 6.74,8.27 -1.92,3.08 -15.26,13.65 -18.43,16.34 -3.3,2.89 -5.91,5.19 -9.21,8.08 -1.79,1.34 -2.89,2.31 -4.54,3.65l-42.77 36.34zm-26.68 -125.36c1.93,1.16 3.03,2.5 4.54,4.42l16.23 20.38c3.16,4.43 1.79,17.69 1.79,25.96 0,24.99 0,49.8 0,74.6 -3.16,-2.12 -6.33,-5.19 -9.49,-7.69 -3.3,-2.88 -5.91,-5.19 -9.21,-8.08l-47.17 -40.18c-3.3,-2.69 -6.6,-6.15 -9.77,-8.46 1.79,-2.88 4.13,-4.81 6.6,-7.31l33.15 -38.06c2.33,-3.08 10.45,-10.96 13.33,-15.58zm145.09 -2.69l24.34 31.34c1.92,2.5 3.16,3.84 5.09,6.54l9.76 12.49c2.06,2.89 39.06,49.61 39.06,51.53 0,6.54 -4.68,12.5 -4.82,19.42 -5.64,-1.35 -67.24,-53.64 -79.07,-61.91 2.06,-9.42 3.44,-49.6 5.64,-59.41zm-314.23 121.32c-0.42,-5.38 -5.78,-17.3 -5.09,-19.8l55.97 -72.49c7.56,-9.8 14.58,-19.61 22.41,-29.03l2.62 29.42c0.55,4.61 1.92,27.68 3.02,29.99 -2.89,1.54 -2.34,1.54 -4.67,3.46 -1.79,1.54 -3.3,2.69 -5.09,4.04l-58.58 46.91c-2.48,2.31 -7.57,6.73 -10.59,7.5zm406.09 -47.49c0.14,-3.84 1.79,-7.88 3.03,-11.34l10.72 -34.42c0,20.38 -0.55,13.84 -8.94,35.38 -0.82,1.92 -1.51,3.65 -2.2,5.38l-2.61 5zm-424.66 0l-2.34 -4.42c-0.96,-2.31 -1.23,-2.89 -2.2,-5.19 -8.66,-19.42 -9.21,-19.04 -9.21,-36.15 0.14,0.19 0.28,0.19 0.28,0.58l3.3 10.19c2.06,6.53 9.9,31.34 10.17,34.99zm240.93 -72.1l38.78 3.46c11.97,0.58 10.32,-1.54 18.71,13.27 1.51,2.69 2.61,4.8 4.26,7.3 5.64,9.23 10.73,17.88 16.09,27.31 5.36,9.03 5.5,4.42 -1.37,22.3 -0.97,2.31 -2.48,5.96 -3.17,8.65 -3.02,-0.96 -4.26,-4.23 -9.35,-9.61l-63.95 -72.68zm-130.5 82.29c-1.1,-4.81 -8.25,-20.96 -8.94,-23.84 2.75,-4.23 4.95,-8.46 7.7,-12.88 3.03,-4.81 5.36,-8.85 8.12,-13.65 2.75,-5 5.22,-8.66 8.11,-13.65 1.92,-3.47 6.74,-10.58 7.56,-14.04 4.68,0 7.02,-0.58 12.1,-0.77 2.89,-0.19 9.22,-0.58 12.66,-1.15l25.16 -2.31c-2.34,4.81 -5.22,6.54 -8.66,10.38 -1.79,2.12 -2.06,3.08 -3.99,5.19l-31.9 35.96c-1.79,1.92 -3.17,3.07 -4.68,5.19l-18.29 20.76c-2.34,2.7 -1.65,3.85 -4.95,4.81zm103.96 -61.14l0 -23.65c2.07,0.96 14.03,1.73 17.74,1.73l-17.74 21.92zm-21.86 -21.92c3.71,0 15.68,-0.77 17.74,-1.73l0 23.65c-2.34,-1.54 -16.37,-19.8 -17.74,-21.92zm121.01 -14.42l0 0zm-202.29 0l0 0zm202.29 0c1.1,-1.92 0,-1.15 2.34,-1.73 -1.24,1.73 -0.14,1.15 -2.34,1.73zm-202.29 0c-2.33,-0.58 -1.23,0 -2.47,-1.73 2.34,0.58 1.24,-0.19 2.47,1.73zm212.75 66.91l-1.79 -2.31c-0.83,-1.15 -1.1,-1.92 -1.79,-3.27 -7.01,-12.3 -19.94,-32.68 -25.44,-43.64 7.56,-4.23 27.37,-19.23 35.48,-23.65l-1.65 17.69c-0.41,5.96 -1.38,12.3 -1.65,18.65l-3.16 36.53zm-229.66 -72.87c3.3,1.73 5.78,4.04 8.8,5.96l26.54 17.69c-1.92,4.04 -4.4,8.46 -6.87,12.3 -2.75,4.43 -4.82,8.08 -7.43,12.5l-13.61 23.07c-1.1,1.73 -0.28,0.39 -1.1,1.35 0,-5.19 -1.38,-12.3 -1.52,-17.69 -0.55,-12.5 -3.44,-33.26 -3.99,-45.95 -0.27,-4.04 -0.82,-5.96 -0.82,-9.23zm319.04 116.13c-4.81,-3.46 -75.77,-99.21 -80.58,-102.67 0.82,-3.65 1.65,-12.5 1.65,-16.92l39.33 -26.34c5.77,-4.23 3.71,-2.5 14.71,-2.5 4.27,0 4.68,0.77 8.8,0.96 2.89,0 6.05,-0.19 8.8,0 3.31,0.19 4.54,0.77 8.94,0.77 3.99,0 5.37,0.38 8.12,0.77l27.36 0.96 -13.34 65.56c-1.92,5.77 -23.37,75.37 -23.79,79.41zm-439.23 -144.97c24.2,0 46.75,-2.69 70.55,-3.84 2.33,-0.2 3.43,0.96 5.77,2.49l39.74 26.73c0,24.61 6.19,9.23 -18.56,42.3 -3.3,4.42 -6.46,8.27 -9.76,12.69 -3.58,4.61 -6.61,8.46 -10.18,13.07l-40.43 51.53c-0.41,-4.61 -3.71,-12.5 -5.09,-17.5l-10.45 -34.8c-1.38,-5.57 -3.58,-11.92 -5.36,-17.3 -3.85,-11.92 -6.06,-23.07 -8.67,-36.72 -1.24,-6.93 -2.34,-12.12 -3.71,-19.04 -1.1,-5.77 -3.03,-13.26 -3.85,-19.61zm460.96 -42.49l14.58 39.03c-3.3,-1.54 -19.12,-1.35 -24.21,-1.54 -11.96,-0.77 -28.46,-2.69 -41.11,-2.69 1.51,-2.11 21.45,-15.19 25.16,-17.5 4.13,-2.69 22.97,-16.53 25.58,-17.3zm-460.14 39.03c1.1,-5 4.95,-13.84 7.02,-19.61l7.56 -19.42 38.37 25.96c3.16,2.11 10.72,6.53 12.37,8.84 -0.27,0 -63.12,3.27 -65.32,4.23zm340.91 36.53l72.75 -70.18c8.11,-8.84 6.74,-7.11 16.78,-6.92 7.7,0 15.54,0 23.38,0 -1.65,2.12 -24.21,17.31 -27.51,19.42 -9.62,5.96 -18.84,12.88 -28.33,19.42l-28.33 19.23c-4.81,3.07 -26.12,18.26 -28.74,19.03zm-207.1 0c-2.89,-0.77 -55.7,-37.49 -56.52,-38.07 -12.93,-8.46 -30.26,-21.34 -42.63,-29.03 -2.61,-1.54 -12.24,-7.88 -13.62,-10 4.13,0 30.4,-0.77 33.15,0.58 3.16,1.92 15.12,14.42 18.56,17.88l42.77 40.57c2.34,2.5 3.85,3.27 6.46,5.96 3.85,4.23 8.94,7.5 11.83,12.11zm-138.62 -34.8l0 0.96c0.55,10 8.66,45.38 10.45,54.22 3.16,17.11 -0.82,31.73 4.26,43.84l23.66 57.29c2.89,7.5 8.39,15.58 7.15,23.84 -1.38,9.81 -4.4,33.84 -4.68,44.03 -0.13,5.39 7.15,32.88 8.67,39.23l8.94 38.83c1.78,7.31 4.53,10.77 7.83,16.35 4.27,7.3 8.39,38.26 10.04,47.1l7.57 41.34c3.3,16.92 3.43,14.04 -5.23,27.69l-16.36 26.91c-1.52,2.5 -2.62,4.04 -4.13,6.54 -1.51,2.5 -2.47,4.42 -3.99,6.92l-12.24 20.19c-3.85,5.96 -19.11,29.42 -20.21,33.84 3.71,2.69 7.97,4.61 12.1,6.73 4.13,2.11 7.98,4.42 12.38,6.54l88.97 45.56c4.4,2.31 8.11,3.85 12.52,6.16 12.92,6.73 70.27,37.3 76.87,38.45l0.27 0c2.48,-11.15 16.23,-55.76 16.92,-64.41l0.82 1.73c0,0 0.55,1.92 0.55,1.92l11.83 44.22c1.51,5.77 3.3,11.16 4.54,16.54l0.55 0c6.87,-1.54 45.38,-22.3 50.47,-25.19 2.34,-1.15 4.12,-1.73 6.19,-2.88l95.43 -48.84c12.93,-6.73 38.92,-18.46 50.47,-26.53 -1.23,-4.61 -12.65,-21.15 -15.81,-26.73l-16.23 -26.91c-4.12,-6.35 -32.45,-51.92 -32.45,-54.03 0,-7.5 3.02,-18.27 4.4,-25.96 2.2,-12.49 11,-68.64 14.99,-75.75 1.65,-3.08 3.57,-6.34 5.36,-9.61 5.09,-9.81 6.88,-25 9.49,-35.96 2.06,-8.84 10.86,-42.68 10.86,-49.41 0,-15.96 -3.98,-31.53 -4.81,-46.72 -0.41,-7.5 32.59,-77.87 33.83,-86.52 1.37,-10.77 -1.1,-22.88 1.1,-33.65 1.79,-9.42 11,-49.03 11,-57.87 0,-2.5 -7.01,-19.61 -8.39,-23.26 -1.51,-4.23 -3.02,-7.89 -4.4,-11.54 -0.82,-2.31 -1.37,-3.65 -2.2,-6.15 -0.96,-2.69 -0.96,-4.81 -3.57,-4.81l-41.12 0c-1.93,0 -3.3,2.31 -4.68,3.46 -12.79,11.15 -24.34,23.84 -36.99,34.99 -7.98,6.93 -14.85,15.19 -22.97,22.31 -6.05,5.38 -12.1,12.3 -18.29,17.3 -6.32,5 -12.1,12.69 -18.56,17.69 -3.71,2.88 -8.25,1.54 -15.13,0.77 -10.59,-1.15 -22.14,-1.35 -32.73,-2.89l-32.73 -2.88 -15.4 1.54c-5.77,0.58 -10.86,0.38 -16.64,1.15 -10.45,1.54 -22.14,1.16 -32.73,2.89 -4.26,0.57 -13.06,1.73 -15.68,0.19l-41.39 -39.61c-7.42,-7.69 -15.95,-14.23 -23.38,-21.92l-18.56 -17.88c-1.65,-1.73 -16.78,-17.11 -19.12,-17.11l-41.11 0c-3.31,0 -4.54,7.5 -5.51,10.38 -2.75,7.12 -13.06,30.19 -13.06,35.38z"/>
   <path class="fil0" d="M255.49 365.03l-0.96 4.23c9.62,-3.46 35.89,-18.07 41.8,-19.61 -1.51,3.46 -0.82,10.38 -0.82,15.19l4.12 -0.77 0 -5 -2.61 0c1.1,-3.08 2.61,-9.23 1.65,-12.5 -0.96,-3.07 -0.82,-2.3 -3.16,-3.07 -0.83,2.88 -3.03,2.69 -9.08,5.96l-28.74 13.84c-0.14,0 -0.41,0.19 -0.55,0.19 -0.14,0.2 -0.28,0.2 -0.41,0.39 -1.1,0.77 -0.55,0.38 -1.24,1.15z"/>
   <path class="fil0" d="M243.94 351.19l0 16.34 -3.16 -0.96 -2.07 3.46c2.07,1.15 3.58,1.54 5.23,2.5l0 4.61c2.2,-1.73 1.51,-0.57 2.47,-4.42 0.55,-2.31 0.42,-3.07 1.65,-4.8l0 -18.27 -4.12 1.54z"/>
  </g>
 </g>
</svg>
