<?xml version="1.0" encoding="UTF-8"?>
<!DOCTYPE svg PUBLIC "-//W3C//DTD SVG 1.1//EN" "http://www.w3.org/Graphics/SVG/1.1/DTD/svg11.dtd">
<!-- Creator: CorelDRAW 2019 (64 Bit) -->
<svg xmlns="http://www.w3.org/2000/svg" xml:space="preserve" width="5mm" height="7mm" version="1.1" style="shape-rendering:geometricPrecision; text-rendering:geometricPrecision; image-rendering:optimizeQuality; fill-rule:evenodd; clip-rule:evenodd"
viewBox="0 0 500 700"
 xmlns:xlink="http://www.w3.org/1999/xlink">
 <defs>
  <style type="text/css">
   <![CDATA[
    .str0 {stroke:black;stroke-width:20;stroke-miterlimit:22.9256}
    .fil0 {fill:black}
    .fil1 {fill:aqua}
   ]]>
  </style>
 </defs>
 <g id="Camada_x0020_1">
  <metadata id="CorelCorpID_0Corel-Layer"/>
  <g id="_2282983630736">
   <rect class="fil0 str0" x="3.74" y="16.44" width="484.52" height="678.33" rx="150.61" ry="190.89"/>
   <g>
    <path class="fil1" d="M248.51 598.52c5.01,1.1 13.73,1.26 18.99,1.89 2.98,0.31 7.28,0.63 9.67,0.78 4.06,0.32 6.69,0.79 10.51,0.79 -0.95,3.93 -4.3,8.34 -6.09,11.95l-19.11 35.86c-0.12,-3.62 -8.6,-30.67 -10.51,-38.06 -1.07,-3.93 -2.98,-9.28 -3.46,-13.21zm-18.99 50.64c-2.63,-2.05 -5.02,-7.86 -6.69,-11.32 -1.19,-2.21 -2.03,-4.09 -3.1,-5.98 -1.08,-2.2 -2.03,-3.46 -3.23,-5.82l-12.18 -24.06 19.59 -1.57c5.49,-0.47 14.57,-0.79 19.7,-1.89 -2.86,11.8 -7.28,25.16 -10.51,37.43 -1.07,3.77 -3.22,9.28 -3.58,13.21zm190.37 -72.81c-0.12,0.16 -0.23,0 -0.35,0.31 0,0.16 -0.36,0.16 -0.36,0.32l-27.23 13.21c-37.39,18.55 -78.11,36.95 -115.49,55.51 -3.23,1.57 -6.57,3.14 -9.8,4.87l9.32 -18.55c1.67,-3.3 3.1,-5.51 4.89,-8.97l9.8 -18.87c1.31,-2.36 1.19,-1.88 4.18,-2.67 2.39,-0.63 3.94,-0.79 6.45,-1.26 10.87,-2.2 113.7,-23.9 118.59,-23.9zm-347.78 0c5.01,0 109.76,22.17 123.97,24.84 6.33,1.26 4.54,2.21 9.67,11.96l19.59 37.42c-16.48,-8.64 -39.41,-18.87 -57.33,-27.83l-95.9 -46.39zm347.78 0l1.44 -0.79 -1.44 0.79zm-347.78 0l-1.56 -0.47 1.56 0.47zm223.22 21.54c1.43,-2.67 3.22,-4.72 4.89,-7.07 8.84,-11.64 77.04,-102.38 79.07,-103.95 3.82,7.07 14.93,22.64 19.82,30.98 2.39,3.93 4.54,6.76 6.81,10.53 3.34,5.51 26.04,39.32 26.63,41.68l-119.79 24.22c-5.25,1.1 -12.3,3.14 -17.43,3.61zm-181.9 -111.02c0.6,2.51 0.6,1.57 2.15,3.46l7.76 10.22c3.71,4.87 6.81,8.96 10.51,13.84l42.04 55.51c3.59,4.88 6.81,8.96 10.51,13.84l10.28 14.15 -137.23 -27.83c0.59,-2.2 1.79,-3.3 3.1,-5.19 1.32,-2.05 2.03,-3.46 3.23,-5.19 2.39,-3.46 4.42,-6.92 6.8,-10.54 5.98,-8.65 38.1,-60.39 40.85,-62.27zm90.89 25c3.1,-0.16 8.12,-1.89 10.75,-2.67 3.58,-0.95 6.69,-1.89 10.15,-2.99l20.54 -5.98c3.23,-0.15 37.38,11.48 41.92,11.64l0 1.42c-4.54,0.31 -38.81,13.05 -41.32,13.05 -3.82,0 -37.26,-12.74 -42.04,-13.05l0 -1.42zm69.39 -52.68c1.91,3.77 3.7,8.49 5.49,12.42 2.03,4.72 16.01,35.7 16.84,39.48 -3.94,-0.95 -8,-2.36 -11.94,-3.46 -6.09,-1.58 -32.72,-10.07 -36.31,-10.38 0,-2.52 -0.12,-5.19 -0.12,-7.71 0.12,-5.5 4.54,-7.7 10.39,-14 1.56,-1.57 1.79,-2.35 3.47,-4.08l12.18 -12.27zm-77.75 51.9c0.36,-4.25 21.26,-47.18 21.74,-51.9 2.38,0.63 2.86,1.57 4.18,3.46l19.46 20.76c4.06,4.87 2.87,1.88 2.87,13.84 -3.46,0.31 -8.48,2.2 -12.06,3.3 -4.18,1.1 -8.12,2.52 -11.83,3.46 -4.18,1.26 -8.24,2.51 -11.94,3.46l-12.42 3.62zm74.88 -54.73l0 0zm-49.68 0l0 0zm-63.66 -12.42l45.51 0c2.98,0 9.79,9.9 12.54,11.79l-23.77 55.36c-9.2,-4.72 -22.69,-15.89 -30.82,-20.13l-2.74 -40.89c-0.24,-2.83 -0.72,-3.15 -0.72,-6.13zm173.54 47.02c-7.89,4.24 -21.62,15.41 -30.82,20.13 -1.07,-1.89 -1.91,-4.41 -2.98,-6.77 -1.08,-2.51 -1.79,-4.09 -2.87,-6.76l-17.91 -41.2c1.43,-2.2 10.15,-12.42 12.54,-12.42l45.5 0c0,2.98 -0.48,2.35 -0.6,5.5l-2.86 41.52zm4.18 -12.43l2.15 -29.09c0.59,-12.74 10.39,-27.84 13.25,-40.26 1.68,1.26 1.44,1.73 2.39,3.93l10.15 23.28c1.32,3.3 2.75,6.6 4.3,9.59 -3.58,2.36 -5.01,5.19 -7.88,8.18l-24.36 24.37zm-193.84 -69.35l11.46 30.82c1.91,4.88 2.39,21.39 3.11,28.31 0.24,1.73 0,3.46 0.12,5.35 0.24,2.2 0.6,2.51 0.71,4.87l-24 -24.06c-1.67,-1.73 -2.63,-2.51 -4.06,-4.4 -1.32,-1.73 -2.27,-2.83 -4.18,-4.09 1.43,-2.83 2.63,-6.13 4.06,-9.28 1.55,-3.62 10.39,-25.79 12.78,-27.52zm129.46 47.18l5.26 -10.07c1.67,-2.98 3.7,-7.7 5.97,-9.43 0.6,2.67 1.43,2.99 2.03,5.66 -1.79,2.67 -4.18,4.25 -6.45,6.76 -2.39,2.68 -3.7,5.03 -6.81,7.08zm-49.68 0c-5.5,-3.78 -8.48,-10.22 -13.97,-13.84 1.19,-1.73 2.14,-3.14 2.74,-5.66 1.79,1.41 10.87,17.77 11.23,19.5zm-102.83 -21.55l0.71 1.42 -0.71 -1.42zm129.46 46.55l0 -46.55 30.82 0 -13.86 24.54c-2.27,4.4 -4.3,8.49 -7.4,12.11 -1.08,1.1 -8.84,9.27 -9.56,9.9zm-34.27 -46.55l30.69 0 0 46.55 -9.2 -9.59c-3.34,-3.46 -17.67,-29.56 -21.49,-36.96zm78.34 -40.88c2.87,1.88 2.87,2.98 5.02,5.34l32.6 37.75c1.68,1.73 1.68,0.94 2.27,3.3l-44.78 0c-2.39,-10.22 -5.74,1.89 -0.36,-22.49l5.25 -23.9zm-87.54 46.39l-44.79 0 10.03 -11.48c1.91,-2.2 2.99,-3.62 4.9,-5.66 5.26,-5.51 21.74,-26.58 25.68,-29.25l5.25 24.06c0.96,4.4 1.8,7.55 2.75,11.79 0.6,3.3 0.6,3.15 -0.84,5.82 -1.07,1.89 -1.79,3.15 -2.98,4.72zm86.11 158.2c-14.45,0 -32.49,-3.3 -42.64,-3.46l0 -63.85c0,-2.51 5.5,-3.3 10.39,-4.87 6.09,-2.04 34.16,-11.8 36.43,-11.8 6.45,0 2.15,3.46 8.72,-1.1 2.75,-1.88 4.89,-3.14 7.52,-4.87l22.58 -15.26c2.98,-3.3 -0.72,-6.44 2.26,-10.22l27.71 -28.62c11.59,-12.42 3.59,-1.57 13.5,-17.77l14.33 -24.06 -11.58 59.92c-2.87,14.15 -1.92,10.38 -11.95,23.59l-26.99 35.69c-1.43,2.05 -2.51,2.99 -3.94,5.04l-30.93 40.88c-2.63,3.46 -5.14,6.77 -7.77,10.23 -2.5,3.3 -5.73,7.07 -7.64,10.53zm-189.66 -185.88l2.39 3.93c5.73,9.6 14.57,27.21 21.98,34.44 2.38,2.36 3.58,4.25 5.85,6.61 4.42,4.24 8.24,8.17 12.66,12.42l9.07 9.75c0.96,0.94 2.51,2.2 3.11,3.15 2.51,3.46 0.72,7.54 2.51,10.06l33.68 22.65c1.91,0.31 2.74,-1.11 5.37,-1.11 2.27,0 29.98,9.6 35.95,11.64 4.66,1.57 10.87,2.52 10.87,5.03l0 63.85c-2.15,0 -7.41,0.79 -10.03,1.1l-32.61 2.36c-1.43,-2.67 -1.91,-2.67 -3.46,-4.87 -1.43,-1.73 -2.51,-3.15 -3.94,-5.19l-77.4 -102.22c-3.94,-5.03 -2.74,-5.51 -4.41,-13.68l-8.72 -44.66c-0.96,-4.88 -2.27,-10.38 -2.87,-15.26zm143.44 -37.58l3.58 -1.26 0 -65.11 41.21 36.01 0 24.07c2.03,0.62 1.91,0 2.74,2.51 0.84,2.68 -0.47,7.71 -1.43,10.22l2.27 0 0 -34.75 36.43 0 19.82 57.4 -8.6 23.12c-1.43,3.77 -3.46,8.02 -4.3,11.79 -1.07,-0.79 -4.65,-4.87 -5.73,-6.13l-22.45 -26.26c-1.32,-1.58 -1.56,-2.05 -2.75,-3.46l-8.48 -9.75c-2.15,-2.52 -3.94,-3.31 -3.94,-7.87l-3.58 0.63c0,9.12 -6.93,36.17 -9.08,45.13l-32.13 0 0 -38.84c1.55,-0.78 4.66,-1.57 5.62,-2.67l0.83 -3.46c-2.03,0.31 -4.42,1.41 -6.45,2.36 -1.07,1.41 -0.95,2.04 -1.43,3.93 -0.84,3.14 -0.24,2.2 -2.15,3.62l0 35.06 -30.69 0c-2.99,-0.62 -1.92,-0.62 -2.51,-3.77 -0.72,-3.62 -1.56,-7.23 -2.27,-10.22 -1.08,-5.35 -6.33,-26.58 -6.45,-30.98 -0.12,-4.09 0,-8.49 0,-12.58 4.06,0.94 5.73,2.36 9.31,3.93l28.07 12.74 1.79 -2.83c-9.31,-4.88 -19.47,-8.97 -29.14,-13.37l-10.03 -4.56c0,-5.19 -1.43,-21.86 0.83,-24.85l41.09 -36.17 0 66.37zm-135.08 -8.81c2.15,1.41 24.01,30.51 26.04,33.18 4.54,5.98 4.18,4.4 -2.63,19.66l-9.32 20.6 -14.09 -73.44zm259.77 73.44c-1.79,-2.04 -6.81,-14.47 -8.01,-17.14 -9.67,-22.65 -11.58,-13.05 6.81,-37.27 1.91,-2.52 13.02,-17.62 15.17,-19.03 -4.9,20.76 -9.08,52.52 -13.97,73.44zm-212.83 -0.63l-10.75 -28.31c-0.6,-1.57 -1.79,-3.93 -2.15,-5.5 -0.96,-3.77 19.11,-52.52 19.23,-58.5l37.02 0 0 32.55c0,8.18 1.2,8.97 -3.22,13.37l-23.89 27.83c-2.51,2.52 -14.09,17.15 -16.24,18.56zm176.4 -93.73l25.32 -27.52c3.34,-4.24 7.52,-7.23 8.24,-9.9l10.03 26.89c1.67,4.56 2.87,8.33 4.42,12.89 4.54,13.53 7.05,6.61 -13.49,32.71 -2.03,2.52 -13.38,18.24 -15.65,19.82 -1.07,-4.72 -2.99,-8.81 -4.66,-13.53l-11.82 -33.96c-0.84,-2.21 -1.55,-5.51 -2.39,-7.4zm-191.81 54.89c-2.75,-1.89 -28.78,-36.49 -31.29,-39.95 -1.91,-2.51 -1.31,-2.36 -0.36,-5.34 0.84,-2.83 1.43,-3.93 2.27,-6.77l13.26 -40.25c2.51,1.73 32.36,33.49 34.99,37.42l-14.09 40.89c-1.55,4.09 -3.7,9.28 -4.78,14zm232.42 36.01l11.82 -62.43c3.34,-16.67 0.48,-12.27 7.88,-19.97 5.02,-5.04 18.99,-21.86 22.93,-24.38l-14.92 59.44 -6.81 11.96c-2.15,3.77 -4.78,7.86 -6.93,11.79l-13.97 23.59zm-254.75 -1.42l-27.47 -46.39 -14.57 -58.97 22.21 23.75c8.24,8.49 5.14,3.61 8.36,19.34 1.08,4.87 11.47,58.03 11.47,62.27zm176.28 -91.52c0.72,-2.36 7.76,-13.21 9.55,-16.2 6.21,-10.53 2.03,-7.55 15.29,-10.53l43.12 -9.28 -27.83 30.03c-5.97,7.08 -3.7,5.98 -13.5,5.98 -8.83,0 -17.67,0 -26.63,0zm-165.18 -36.01l42.64 9.12c13.14,3.14 9.08,-0.32 15.53,10.22 3.34,5.5 6.69,10.85 9.79,16.67l-32.25 0c-5.13,-0.16 -5.01,-3.3 -10.62,-8.81l-25.09 -27.2zm240.78 -2.83c4.3,-0.32 36.79,-18.09 42.76,-19.35l2.86 22.81c1.68,13.99 3.11,13.21 -3.82,19.97 -5.73,5.5 -21.26,24.22 -25.68,27.2 -0.47,-5.34 -15.88,-44.66 -16.12,-50.63zm-264.54 50.63c-3.11,-2.04 -5.62,-4.87 -8,-8.02l-15.41 -16.67c-8.12,-10.53 -8.84,-0.15 -5.5,-26.89 0.84,-6.44 0.96,-12.74 2.27,-18.4l31.53 14.47c2.75,1.42 8.01,4.56 11.23,4.88 -0.12,5.82 -15.64,44.34 -16.12,50.63zm205.06 -40.25l18.04 -43.88c1.19,-2.99 5.61,-12.58 5.73,-15.1 2.27,1.58 23.29,35.39 26.63,41.05 1.08,1.89 2.99,4.24 3.47,6.13 -17.8,4.09 -35.95,7.71 -53.87,11.8zm-153.23 -58.98c0.24,3.46 15.17,38.06 17.68,44.19 1.91,4.72 3.94,10.7 6.09,14.79 -17.92,-4.09 -36.07,-7.55 -53.87,-11.8l6.93 -11.79c2.63,-3.78 5.02,-7.87 7.65,-11.8 2.38,-3.77 13.25,-22.01 15.52,-23.59zm132.93 86.02l-32.37 -28.93c-12.54,-11.95 -10.27,-5.19 -10.27,-22.96 0,-2.05 6.21,-6.13 7.88,-7.55 1.56,-1.26 2.63,-2.04 4.3,-3.3l38.34 -30.67c1.55,-1.41 2.39,-2.2 4.18,-3.61 1.44,-1.11 2.75,-2.05 4.18,-3.31 3.11,-2.51 5.97,-5.03 8.96,-7.07 3.58,2.36 5.49,5.81 8.6,8.8 3.1,2.99 5.73,5.51 8.24,9.12 -1.08,4.72 -25.08,62.59 -29.02,69.2 -2.03,3.3 -10.87,18.87 -13.02,20.28zm-130.9 -89.48l16.84 -17.92c1.32,0.78 2.87,2.2 4.3,3.3l12.66 10.38c5.97,4.72 11.23,8.8 17.08,13.52l12.78 10.22c1.67,1.42 2.63,2.21 4.18,3.62l15.17 11.95c1.19,1.1 1.67,0.32 1.67,2.52 0,20.91 0.95,10.85 -15.53,27.52l-10.51 9.59c-2.39,2.05 -3.34,2.68 -5.61,4.88 -2.15,2.2 -3.46,2.98 -5.61,4.87 -1.91,1.89 -3.23,3.62 -5.38,5.03 -2.15,-1.41 -4.89,-6.76 -6.57,-9.43 -2.15,-3.78 -3.94,-6.92 -6.21,-10.54 -2.51,-4.09 -3.46,-6.13 -5.37,-10.53 -1.55,-4.09 -2.99,-7.87 -4.78,-11.96 -3.34,-7.86 -6.33,-15.09 -9.55,-23.11 -1.8,-4.25 -3.11,-7.55 -4.78,-11.8l-4.78 -12.11zm185.48 -20.75l61.27 46.23c2.03,1.42 2.39,2.52 4.54,2.99l0 1.41c-5.26,1.26 -36.67,18.09 -42.64,19.35l-15.88 -25.17c-1.68,-2.51 -15.41,-23.11 -15.29,-25.16 0,-0.94 7.28,-18.24 8,-19.65zm-221.19 69.98c-5.97,-1.26 -14.69,-6.77 -21.14,-9.44 -3.58,-1.57 -6.93,-3.46 -10.27,-5.03 -2.75,-1.42 -8.24,-4.25 -11.23,-4.88 0.48,-1.88 0.72,-1.57 3.35,-3.61 1.55,-1.1 2.39,-1.73 4.06,-2.99 3.1,-2.2 5.13,-3.93 8.24,-6.29 3.1,-2.2 5.37,-3.93 8.48,-6.29 3.1,-2.2 5.25,-4.09 8.24,-6.29 5.85,-4.25 10.99,-8.34 16.72,-12.58 2.99,-2.21 5.49,-4.25 8.24,-6.29 2.63,-2.05 5.73,-4.56 8.48,-6.29l8 19.18c0.36,2.05 -3.34,6.76 -4.54,8.49l-26.63 42.31zm-60.79 -56.77c0,-1.73 1.08,-0.16 0.36,0 0,0 -0.36,1.88 -0.36,0zm365.34 -0.79l0.12 0.31c0,0 -0.24,-0.15 -0.12,-0.31zm1.32 -2.05l-0.36 1.58 0.36 -1.58zm-367.38 0l0.72 1.42 -0.72 -1.42zm368.09 -2.04c0,3.3 0,1.26 -0.71,2.04 0,-3.3 0,-1.25 0.71,-2.04zm-368.8 0c0.71,0.79 0.71,-1.26 0.71,2.04 -0.71,-0.78 -0.71,1.26 -0.71,-2.04zm186.19 44.35l-0.12 -76.27c0,-3.15 0.24,-4.09 1.79,-5.98 2.39,-2.99 15.29,-18.56 17.92,-20.29l39.65 43.09c2.15,2.05 5.02,3.78 5.85,6.77 -1.67,2.51 -13.25,11.16 -16,13.36 -2.87,2.36 -5.14,4.25 -8,6.61 -1.56,1.1 -2.51,1.88 -3.94,2.99l-37.15 29.72zm-23.17 -102.54c1.67,0.95 2.63,2.05 3.94,3.62l14.1 16.67c2.74,3.62 1.55,14.47 1.55,21.23 0,20.44 0,40.73 0,61.02 -2.75,-1.73 -5.49,-4.25 -8.24,-6.29 -2.87,-2.36 -5.14,-4.25 -8,-6.61l-40.97 -32.87c-2.87,-2.2 -5.73,-5.03 -8.48,-6.91 1.55,-2.36 3.58,-3.94 5.73,-5.98l28.79 -31.14c2.03,-2.51 9.07,-8.96 11.58,-12.74zm126 -2.2l21.14 25.64c1.68,2.04 2.75,3.14 4.42,5.34l8.48 10.22c1.79,2.36 33.92,40.58 33.92,42.15 0,5.35 -4.06,10.22 -4.18,15.88 -4.9,-1.1 -58.4,-43.87 -68.67,-50.63 1.79,-7.71 2.98,-40.58 4.89,-48.6zm-272.9 99.23c-0.36,-4.4 -5.02,-14.15 -4.42,-16.19l48.61 -59.29c6.57,-8.02 12.66,-16.04 19.47,-23.75l2.27 24.06c0.47,3.78 1.67,22.65 2.62,24.54 -2.5,1.25 -2.03,1.25 -4.06,2.83 -1.55,1.25 -2.86,2.2 -4.42,3.3l-50.87 38.37c-2.15,1.89 -6.57,5.5 -9.2,6.13zm352.68 -38.84c0.12,-3.14 1.56,-6.45 2.63,-9.28l9.32 -28.15c0,16.67 -0.48,11.33 -7.77,28.94 -0.71,1.57 -1.31,2.99 -1.91,4.4l-2.27 4.09zm-368.8 0l-2.03 -3.62c-0.84,-1.88 -1.08,-2.36 -1.91,-4.24 -7.53,-15.89 -8.01,-15.57 -8.01,-29.57 0.12,0.16 0.24,0.16 0.24,0.47l2.87 8.34c1.79,5.35 8.6,25.63 8.84,28.62zm209.24 -58.97l33.68 2.83c10.39,0.47 8.96,-1.26 16.25,10.85 1.31,2.2 2.26,3.93 3.7,5.98 4.89,7.54 9.31,14.62 13.97,22.33 4.66,7.39 4.78,3.61 -1.19,18.24 -0.84,1.89 -2.15,4.87 -2.75,7.07 -2.63,-0.78 -3.7,-3.45 -8.12,-7.86l-55.54 -59.44zm-113.34 67.3c-0.95,-3.93 -7.16,-17.14 -7.76,-19.5 2.39,-3.45 4.3,-6.91 6.69,-10.53 2.62,-3.93 4.65,-7.24 7.04,-11.17 2.39,-4.09 4.54,-7.07 7.05,-11.16 1.67,-2.83 5.85,-8.65 6.57,-11.48 4.06,0 6.09,-0.47 10.51,-0.63 2.51,-0.16 8,-0.47 10.99,-0.94l21.85 -1.89c-2.03,3.93 -4.54,5.34 -7.52,8.49 -1.55,1.73 -1.79,2.52 -3.47,4.25l-27.7 29.4c-1.56,1.58 -2.75,2.52 -4.06,4.25l-15.89 16.98c-2.03,2.21 -1.43,3.15 -4.3,3.93zm90.29 -50l0 -19.35c1.79,0.79 12.18,1.42 15.41,1.42l-15.41 17.93zm-18.99 -17.93c3.23,0 13.62,-0.63 15.41,-1.42l0 19.35c-2.03,-1.26 -14.21,-16.2 -15.41,-17.93zm105.1 -11.8l0 0zm-175.68 0l0 0zm175.68 0c0.96,-1.57 0,-0.94 2.03,-1.41 -1.07,1.41 -0.12,0.94 -2.03,1.41zm-175.68 0c-2.03,-0.47 -1.08,0 -2.15,-1.41 2.03,0.47 1.07,-0.16 2.15,1.41zm184.76 54.73l-1.55 -1.89c-0.72,-0.94 -0.96,-1.57 -1.56,-2.67 -6.09,-10.06 -17.31,-26.73 -22.09,-35.7 6.57,-3.46 23.77,-15.72 30.81,-19.34l-1.43 14.47c-0.36,4.87 -1.19,10.06 -1.43,15.25l-2.75 29.88zm-199.45 -59.6c2.86,1.41 5.01,3.3 7.64,4.87l23.05 14.47c-1.67,3.3 -3.82,6.92 -5.97,10.07 -2.39,3.61 -4.18,6.6 -6.45,10.22l-11.82 18.87c-0.96,1.42 -0.24,0.31 -0.96,1.1 0,-4.25 -1.19,-10.06 -1.31,-14.47 -0.48,-10.22 -2.99,-27.2 -3.47,-37.58 -0.23,-3.3 -0.71,-4.88 -0.71,-7.55zm277.08 94.98c-4.18,-2.83 -65.81,-81.14 -69.99,-83.97 0.72,-2.99 1.44,-10.22 1.44,-13.84l34.15 -21.55c5.02,-3.46 3.23,-2.04 12.78,-2.04 3.71,0 4.06,0.63 7.65,0.79 2.51,0 5.25,-0.16 7.64,0 2.87,0.15 3.94,0.63 7.76,0.63 3.47,0 4.66,0.31 7.05,0.62l23.77 0.79 -11.59 53.63c-1.67,4.71 -20.3,61.64 -20.66,64.94zm-381.47 -118.57c21.02,0 40.61,-2.2 61.27,-3.14 2.03,-0.16 2.99,0.78 5.02,2.04l34.51 21.86c0,20.13 5.38,7.55 -16.12,34.6 -2.87,3.61 -5.61,6.76 -8.48,10.37 -3.1,3.78 -5.73,6.92 -8.84,10.7l-35.11 42.14c-0.36,-3.77 -3.22,-10.22 -4.42,-14.31l-9.08 -28.46c-1.19,-4.56 -3.1,-9.75 -4.65,-14.15 -3.35,-9.75 -5.26,-18.87 -7.53,-30.04 -1.07,-5.66 -2.03,-9.91 -3.22,-15.57 -0.96,-4.72 -2.63,-10.85 -3.35,-16.04zm400.34 -34.75l12.66 31.92c-2.87,-1.26 -16.6,-1.1 -21.02,-1.26 -10.39,-0.63 -24.72,-2.2 -35.71,-2.2 1.31,-1.73 18.63,-12.42 21.86,-14.31 3.58,-2.2 19.94,-13.52 22.21,-14.15zm-399.62 31.92c0.96,-4.09 4.3,-11.32 6.09,-16.04l6.57 -15.88 33.32 21.23c2.75,1.73 9.32,5.34 10.75,7.23 -0.24,0 -54.82,2.67 -56.73,3.46zm296.07 29.88l63.18 -57.4c7.05,-7.23 5.86,-5.82 14.57,-5.66 6.69,0 13.5,0 20.31,0 -1.44,1.73 -21.02,14.15 -23.89,15.88 -8.36,4.88 -16.36,10.54 -24.6,15.88l-24.61 15.73c-4.18,2.52 -22.69,14.94 -24.96,15.57zm-179.86 0c-2.51,-0.63 -48.37,-30.67 -49.09,-31.14 -11.23,-6.92 -26.27,-17.45 -37.02,-23.74 -2.27,-1.26 -10.63,-6.45 -11.83,-8.18 3.59,0 26.4,-0.63 28.79,0.47 2.74,1.57 13.13,11.79 16.12,14.63l37.14 33.18c2.03,2.04 3.35,2.67 5.62,4.87 3.34,3.46 7.76,6.13 10.27,9.91zm-120.39 -28.46l0 0.78c0.48,8.18 7.52,37.11 9.08,44.35 2.74,13.99 -0.72,25.95 3.7,35.85l20.54 46.87c2.51,6.13 7.29,12.74 6.21,19.5 -1.19,8.02 -3.82,27.67 -4.06,36.01 -0.12,4.4 6.21,26.89 7.53,32.08l7.76 31.77c1.55,5.97 3.94,8.8 6.81,13.36 3.7,5.98 7.28,31.3 8.72,38.53l6.56 33.81c2.87,13.84 2.99,11.48 -4.53,22.65l-14.22 22.01c-1.31,2.05 -2.27,3.31 -3.58,5.35 -1.31,2.05 -2.15,3.62 -3.46,5.66l-10.63 16.52c-3.35,4.87 -16.6,24.06 -17.56,27.67 3.23,2.2 6.93,3.78 10.51,5.51 3.58,1.73 6.93,3.61 10.75,5.34l77.27 37.27c3.82,1.89 7.05,3.15 10.87,5.04 11.23,5.5 61.03,30.5 66.76,31.45l0.24 0c2.15,-9.12 14.1,-45.61 14.69,-52.68l0.72 1.41c0,0 0.48,1.57 0.48,1.57l10.27 36.17c1.31,4.72 2.86,9.13 3.94,13.53l0.48 0c5.97,-1.26 39.41,-18.24 43.83,-20.6 2.03,-0.95 3.58,-1.42 5.37,-2.36l82.89 -39.95c11.23,-5.5 33.8,-15.09 43.83,-21.7 -1.07,-3.77 -10.99,-17.3 -13.73,-21.86l-14.1 -22.01c-3.58,-5.19 -28.18,-42.46 -28.18,-44.19 0,-6.14 2.62,-14.94 3.82,-21.23 1.91,-10.22 9.55,-56.14 13.02,-61.96 1.43,-2.52 3.1,-5.19 4.65,-7.87 4.42,-8.02 5.98,-20.44 8.25,-29.4 1.79,-7.24 9.43,-34.91 9.43,-40.42 0,-13.05 -3.46,-25.79 -4.18,-38.21 -0.36,-6.14 28.31,-63.69 29.38,-70.77 1.2,-8.81 -0.95,-18.71 0.96,-27.52 1.55,-7.71 9.55,-40.1 9.55,-47.33 0,-2.05 -6.09,-16.05 -7.28,-19.03 -1.32,-3.46 -2.63,-6.45 -3.83,-9.44 -0.71,-1.89 -1.19,-2.99 -1.91,-5.03 -0.83,-2.2 -0.83,-3.93 -3.1,-3.93l-35.71 0c-1.67,0 -2.87,1.88 -4.06,2.83 -11.11,9.12 -21.14,19.5 -32.13,28.62 -6.93,5.66 -12.9,12.42 -19.95,18.24 -5.25,4.4 -10.51,10.07 -15.88,14.15 -5.49,4.09 -10.51,10.38 -16.12,14.47 -3.23,2.36 -7.17,1.26 -13.14,0.63 -9.2,-0.94 -19.23,-1.1 -28.43,-2.36l-28.42 -2.36 -13.38 1.26c-5.01,0.47 -9.43,0.32 -14.45,0.95 -9.08,1.25 -19.23,0.94 -28.42,2.35 -3.71,0.48 -11.35,1.42 -13.62,0.16l-35.95 -32.39c-6.45,-6.29 -13.85,-11.64 -20.3,-17.93l-16.12 -14.63c-1.44,-1.41 -14.58,-13.99 -16.61,-13.99l-35.71 0c-2.86,0 -3.94,6.13 -4.77,8.49 -2.39,5.82 -11.35,24.69 -11.35,28.94z"/>
    <path class="fil1" d="M254.24 386.38l-0.83 3.46c8.36,-2.83 31.17,-14.78 36.3,-16.04 -1.31,2.83 -0.71,8.49 -0.71,12.42l3.58 -0.63 0 -4.09 -2.27 0c0.96,-2.51 2.27,-7.54 1.43,-10.22 -0.83,-2.51 -0.71,-1.89 -2.74,-2.51 -0.72,2.35 -2.63,2.2 -7.89,4.87l-24.96 11.32c-0.12,0 -0.36,0.16 -0.48,0.16 -0.11,0.16 -0.23,0.16 -0.35,0.32 -0.96,0.62 -0.48,0.31 -1.08,0.94z"/>
    <path class="fil1" d="M244.21 375.06l0 13.36 -2.75 -0.78 -1.79 2.83c1.79,0.94 3.11,1.26 4.54,2.04l0 3.78c1.91,-1.42 1.31,-0.48 2.15,-3.62 0.48,-1.89 0.36,-2.52 1.43,-3.93l0 -14.94 -3.58 1.26z"/>
   </g>
  </g>
 </g>
</svg>
