<?xml version="1.0" encoding="UTF-8"?>
<svg id="Camada_2" data-name="Camada 2" xmlns="http://www.w3.org/2000/svg" xmlns:xlink="http://www.w3.org/1999/xlink" viewBox="0 0 225 640">
  <defs>
    <style>
      .cls-1 {
        fill: #fff;
        fill-rule: evenodd;
      }

      .cls-2 {
        filter: url(#drop-shadow-1);
      }

      .cls-2, .cls-3 {
        fill: #1a1a1a;
      }

      .cls-4 {
        fill: #f1f1f1;
      }
    </style>
    <filter id="drop-shadow-1" filterUnits="userSpaceOnUse">
      <feOffset dx="2" dy="2"/>
      <feGaussianBlur result="blur" stdDeviation="2"/>
      <feFlood flood-color="#000" flood-opacity=".5"/>
      <feComposite in2="blur" operator="in"/>
      <feComposite in="SourceGraphic"/>
    </filter>
  </defs>
  <g id="Camada_1-2" data-name="Camada 1">
    <path class="cls-3" d="m30,0h165c16.56,0,30,13.44,30,30v100H0V30C0,13.44,13.44,0,30,0Z"/>
    <path class="cls-4" d="m0,130h225v486.09c0,13.2-13.43,23.91-30,23.91H30c-16.57,0-30-10.7-30-23.91V130Z"/>
    <circle class="cls-2" cx="112.5" cy="125" r="50"/>
    <path class="cls-1" d="m104.36,110.18c-2.52-.71-5.13-1.07-7.75-1.07-1.75,0-3.18,1.42-3.18,3.18,0,11.21,6.55,21.39,16.76,26.04-2.35.65-4.78.98-7.22.98-1.13,0-2.25-.07-3.37-.21-7.94-6.64-12.52-16.46-12.52-26.8,0-5.26,4.27-9.53,9.53-9.53,4.86,0,9.66,1.01,14.1,2.97-2.27,1.26-4.4,2.75-6.36,4.46h0Zm27.21,2.11c0-1.75-1.42-3.18-3.18-3.18-12.55,0-23.65,8.19-27.34,20.19-1.7-2.09-3.07-4.43-4.07-6.93,5.86-12.01,18.05-19.62,31.41-19.62,5.27,0,9.53,4.27,9.53,9.53,0,6.6-1.87,13.07-5.4,18.66-.57-2.98-1.49-5.88-2.77-8.63,1.19-3.21,1.81-6.6,1.81-10.02h0Zm-37.85,23.1c-.19.76-.29,1.54-.29,2.32,0,5.27,4.27,9.53,9.53,9.53,7.37,0,14.54-2.33,20.51-6.64.1-.96.15-1.93.15-2.89,0-1.73-.17-3.45-.49-5.14-5.36,5.33-12.61,8.32-20.17,8.32-1.36,0-2.72-.1-4.06-.29-1.89-1.56-3.64-3.3-5.19-5.21h0Zm20.17-20.47c7.13,5.41,11.32,13.84,11.32,22.79,0,1.26-.08,2.51-.24,3.76-2.89,2.18-6.09,3.92-9.49,5.16,2.16.41,4.35.62,6.55.62,5.27,0,9.53-4.27,9.53-9.53,0-9.79-4.11-19.14-11.33-25.76-2.24.71-4.37,1.7-6.35,2.96h0Z"/>
    <path class="cls-1" d="m122.71,130.26c.27,0,.48.22.48.48s-.22.48-.48.48-.48-.22-.48-.48.22-.48.48-.48h0Z"/>
    <path class="cls-1" d="m102.29,130.26c.26,0,.48.22.48.48s-.22.48-.48.48-.48-.22-.48-.48.21-.48.48-.48h0Z"/>
    <path class="cls-1" d="m112.5,115.4c.27,0,.48.22.48.48s-.21.48-.48.48-.48-.21-.48-.48.22-.48.48-.48h0Z"/>
  </g>
</svg>